<?xml version="1.0" encoding="utf-8"?>
<!-- Generator: Adobe Illustrator 16.0.0, SVG Export Plug-In . SVG Version: 6.00 Build 0)  -->
<!DOCTYPE svg PUBLIC "-//W3C//DTD SVG 1.1//EN" "http://www.w3.org/Graphics/SVG/1.1/DTD/svg11.dtd">
<svg version="1.1" id="Layer_1" xmlns="http://www.w3.org/2000/svg" xmlns:xlink="http://www.w3.org/1999/xlink" x="0px" y="0px"
	 width="68.451px" height="68.447px" viewBox="0 0 68.451 68.447" enable-background="new 0 0 68.451 68.447" xml:space="preserve">
<g>
	<g>
		<path fill="#E9242A" d="M32.596,68.441c-0.14,0-0.276,0-0.416,0c-0.045-0.098-0.137-0.064-0.212-0.072
			c-1.418-0.098-2.826-0.27-4.223-0.545c-7.736-1.533-14.22-5.266-19.382-11.215c-5.056-5.826-7.789-12.635-8.295-20.336
			c-0.001-0.115-0.001-0.229-0.002-0.344c0-0.117,0-0.232,0-0.348c0.001-0.113,0.002-0.229,0.003-0.342
			c0-0.189,0.046-0.387-0.061-0.564c0-0.299,0-0.602,0-0.9c0.107-0.18,0.061-0.375,0.061-0.565
			c-0.001-0.113-0.002-0.229-0.003-0.343c0-0.116,0-0.231,0-0.347c0.001-0.114,0.001-0.229,0.002-0.344
			c0.044-0.49,0.04-0.983,0.145-1.467c0.093,0.068,0.19,0.131,0.278,0.206c2.367,1.989,4.734,3.98,7.1,5.97
			c1.051,0.883,2.1,1.77,3.152,2.65c0.352,0.295,0.463,0.299,0.855,0.033c0.21-0.143,0.408-0.301,0.611-0.453
			c0.093,0.084,0.186,0.17,0.279,0.254c0.986,1.375,2.08,2.662,3.246,3.889c0.267,0.279,0.59,0.508,0.794,0.848
			c-0.493,0.322-0.894,0.732-1.167,1.256c-0.784,1.494,0.198,3.23,1.884,3.34c0.167,0.012,0.334,0.002,0.583,0.002
			c-0.469,0.328-0.894,0.582-1.268,0.896c-1.057,0.887-1.253,2.412-0.472,3.459c0.75,1.006,2.267,1.242,3.405,0.531
			c0.324-0.201,0.645-0.406,0.967-0.611c0.021,0.021,0.044,0.043,0.066,0.064c-0.832,0.672-1.232,1.525-1.021,2.596
			c0.312,1.559,2.198,2.275,3.616,1.379c0.81-0.514,1.599-1.059,2.398-1.586c0.09-0.059,0.165-0.162,0.328-0.135
			c-0.046,0.088-0.087,0.162-0.128,0.238c-0.44,0.832-0.335,1.766,0.269,2.375c0.608,0.617,1.692,0.779,2.474,0.326
			c1.938-1.125,3.862-2.27,5.792-3.408c0.212,0.115,0.429,0.223,0.637,0.346c1.723,1.01,3.44,2.025,5.165,3.031
			c0.744,0.436,1.748,0.359,2.377-0.156c0.611-0.502,0.848-1.313,0.596-2.1c-0.07-0.223-0.186-0.432-0.285-0.66
			c0.162-0.006,0.246,0.102,0.346,0.166c0.791,0.52,1.57,1.059,2.369,1.563c1.387,0.873,3.195,0.232,3.584-1.283
			c0.271-1.057-0.104-1.926-0.91-2.629c0.023-0.02,0.047-0.041,0.07-0.063c0.332,0.209,0.66,0.422,0.996,0.623
			c0.855,0.514,2.059,0.467,2.844-0.141c0.822-0.637,1.086-1.496,0.859-2.496c-0.158-0.705-0.574-1.248-1.172-1.652
			c-0.307-0.209-0.615-0.414-0.996-0.668c0.215,0,0.326,0,0.438,0c1.816-0.01,2.895-1.873,1.992-3.445
			c-0.275-0.48-0.66-0.855-1.113-1.166c0.039-0.055,0.072-0.117,0.121-0.164c1.32-1.256,2.482-2.65,3.59-4.092
			c0.199,0.049,0.379,0.283,0.602,0.115c0.322-0.246,0.676-0.463,0.945-0.771c0.512,0.291,0.535,0.289,0.996-0.102
			c0.555-0.471,1.105-0.941,1.658-1.41c2.033-1.721,4.063-3.445,6.104-5.153c0.723-0.605,1.395-1.27,2.172-1.813
			c0.105,0.482,0.1,0.979,0.145,1.467c0,0.115,0.002,0.23,0.002,0.346s0,0.23,0,0.346c-0.002,0.115-0.004,0.23-0.006,0.346
			c0,0.166-0.037,0.338,0.064,0.491c0,0.347,0,0.693,0,1.041c-0.104,0.154-0.064,0.326-0.064,0.492
			c0.002,0.115,0.004,0.23,0.006,0.346c0.01,0.139-0.07,0.289,0.059,0.41c0,0.07,0,0.139,0,0.209
			c-0.104,0.061-0.064,0.164-0.07,0.25c-0.123,1.846-0.383,3.674-0.803,5.475c-1.328,5.703-3.918,10.764-7.85,15.102
			C53.664,63.707,46.127,67.47,37.139,68.32c-0.313,0.029-0.639-0.02-0.938,0.123c-0.139,0-0.277,0-0.416,0
			c-0.121-0.123-0.273-0.045-0.41-0.064c-0.303,0.016-0.612-0.064-0.907,0.064c-0.162,0-0.324,0-0.484,0
			c-0.295-0.129-0.604-0.051-0.908-0.064C32.917,68.4,32.742,68.308,32.596,68.441z"/>
		<path fill="#E9242A" d="M36.133,0.007c0.023,0,0.047,0,0.068,0c0.047,0.098,0.139,0.064,0.213,0.069
			c0.865,0.055,1.727,0.144,2.584,0.265c5.652,0.798,10.783,2.886,15.396,6.244c1.326,0.966,2.594,2.004,3.736,3.186
			c-1.152,0.978-2.305,1.957-3.459,2.933c-2.051,1.737-4.104,3.474-6.158,5.209c-1.393,1.177-2.781,2.359-4.182,3.526
			c-0.254,0.211-0.303,0.424-0.209,0.726c0.104,0.332,0.324,0.614,0.389,0.959c-0.182,0.138-0.354,0.294-0.551,0.409
			c-0.305,0.179-0.4,0.417-0.283,0.746c-3.096,1.001-6.297,1.493-9.5,1.974c-0.773-0.127-1.55-0.244-2.322-0.388
			c-2.008-0.374-4.02-0.733-5.994-1.261c0.026-0.087,0.045-0.178,0.08-0.262c0.141-0.328,0.103-0.582-0.226-0.795
			c-0.336-0.219-0.64-0.489-0.958-0.737c0.011-0.057,0.018-0.114,0.033-0.169c0.154-0.545,0.15-0.539-0.285-0.903
			c-1.072-0.896-2.139-1.798-3.207-2.697c-2.721-2.289-5.442-4.577-8.161-6.868c-0.944-0.796-1.882-1.6-2.822-2.399
			c0.028-0.036,0.053-0.076,0.085-0.107c5.856-5.592,12.806-8.786,20.875-9.536c0.324-0.03,0.662,0.017,0.973-0.125
			c0.023,0,0.047,0,0.07,0c0.121,0.135,0.272,0.045,0.41,0.058c0.115,0.002,0.23,0.004,0.346,0.007
			c0.258-0.011,0.521,0.058,0.77-0.065c0.254,0,0.508,0,0.764,0c0.248,0.123,0.51,0.053,0.768,0.065
			c0.115-0.002,0.23-0.004,0.346-0.007C35.859,0.051,36.012,0.141,36.133,0.007z M26.841,19.411c0.078,0.083,0.15,0.174,0.236,0.25
			c2.488,2.245,5.402,3.161,8.706,2.63c6.475-1.04,10.324-7.728,8.014-13.863c-0.521-1.39-1.295-2.625-2.391-3.645
			C41.328,4.7,41.254,4.611,41.17,4.535c-2.863-2.544-6.178-3.394-9.854-2.357c-3.723,1.05-6.177,3.537-7.156,7.279
			C23.17,13.235,24.125,16.585,26.841,19.411z M34.877,22.527c-0.005-0.009-0.009-0.018-0.015-0.027c-0.518,0-1.035,0-1.554,0
			c0,0.009,0.001,0.018,0.001,0.027C33.832,22.527,34.355,22.527,34.877,22.527z"/>
		<path fill="none" d="M58.133,9.772c-1.145-1.183-2.412-2.221-3.736-3.187c-4.613-3.358-9.744-5.445-15.398-6.244
			c-0.857-0.121-1.717-0.21-2.582-0.265c-0.074-0.005-0.166,0.028-0.213-0.07c10.643,0,21.287,0.001,31.93-0.006
			c0.26,0,0.318,0.059,0.318,0.318c-0.008,10.62-0.008,21.24-0.008,31.86c-0.02-0.004-0.039-0.004-0.061-0.004
			c-0.045-0.49-0.037-0.984-0.145-1.468c-0.008-0.672-0.127-1.333-0.236-1.991c-0.914-5.542-3.059-10.565-6.432-15.06
			C60.529,12.269,59.404,10.955,58.133,9.772z"/>
		<path fill="none" d="M32.25,0.007c-0.311,0.142-0.648,0.095-0.973,0.125c-8.07,0.75-15.021,3.943-20.875,9.535
			c-0.033,0.031-0.057,0.071-0.085,0.107c-0.069,0.06-0.142,0.117-0.207,0.181C5.355,14.717,2.238,20.379,0.785,26.95
			c-0.274,1.238-0.5,2.488-0.573,3.758c-0.105,0.483-0.1,0.979-0.145,1.467c-0.02,0-0.04,0-0.06,0.004
			C0.007,21.553,0.008,10.927,0,0.301C0,0.051,0.051-0.001,0.301,0C10.951,0.008,21.6,0.007,32.25,0.007z"/>
		<path fill="none" d="M36.201,68.441c0.299-0.141,0.627-0.092,0.938-0.123c8.986-0.848,16.525-4.611,22.582-11.291
			c3.932-4.338,6.521-9.398,7.85-15.102c0.42-1.803,0.68-3.629,0.803-5.477c0.006-0.084-0.033-0.188,0.07-0.25
			c0,10.645-0.002,21.287,0.006,31.93c0,0.26-0.059,0.318-0.318,0.318C57.488,68.441,46.844,68.441,36.201,68.441z"/>
		<path fill="none" d="M0.068,36.273c0.506,7.699,3.239,14.51,8.295,20.336c5.163,5.949,11.646,9.682,19.382,11.213
			c1.396,0.277,2.805,0.447,4.223,0.547c0.075,0.006,0.167-0.025,0.212,0.072c-10.625,0-21.251-0.002-31.877,0.006
			c-0.25,0-0.301-0.051-0.301-0.301C0.01,57.521,0.008,46.894,0.008,36.269C0.028,36.273,0.048,36.273,0.068,36.273z"/>
		<path fill="#56C2AF" d="M33.076,68.376c0.303,0.016,0.613-0.064,0.906,0.064c-0.3,0-0.601,0-0.9,0
			C33.082,68.419,33.08,68.398,33.076,68.376z"/>
		<path fill="#56C2AF" d="M34.468,68.441c0.294-0.127,0.604-0.049,0.907-0.064c-0.004,0.021-0.006,0.045-0.006,0.064
			C35.07,68.441,34.768,68.441,34.468,68.441z"/>
		<path fill="#56C2B0" d="M33.844,0.007c-0.248,0.122-0.511,0.053-0.769,0.064c0.004-0.021,0.006-0.043,0.006-0.064
			C33.336,0.007,33.59,0.007,33.844,0.007z"/>
		<path fill="#56C2B0" d="M35.375,0.072c-0.258-0.012-0.52,0.058-0.768-0.065c0.254,0,0.508,0,0.762,0
			C35.369,0.029,35.371,0.05,35.375,0.072z"/>
		<path fill="#56C2AF" d="M0.069,33.21c0,0.189,0.046,0.385-0.061,0.563c0-0.184,0-0.37,0-0.555
			C0.028,33.214,0.048,33.212,0.069,33.21z"/>
		<path fill="#56C2AF" d="M0.008,34.675c0.107,0.178,0.061,0.375,0.061,0.563c-0.021-0.002-0.041-0.004-0.061-0.008
			C0.008,35.044,0.008,34.859,0.008,34.675z"/>
		<path fill="#52C1AE" d="M68.443,33.704c-0.102-0.154-0.064-0.326-0.064-0.492c0.021,0.002,0.043,0.004,0.064,0.006
			C68.443,33.38,68.443,33.542,68.443,33.704z"/>
		<path fill="#52C1AE" d="M68.379,35.236c0-0.166-0.037-0.338,0.064-0.492c0,0.162,0,0.324,0,0.486
			C68.422,35.232,68.4,35.234,68.379,35.236z"/>
		<path fill="#86CFC3" d="M33.076,68.376c0.004,0.021,0.006,0.043,0.006,0.064c-0.162,0-0.324,0-0.485,0
			C32.742,68.308,32.917,68.4,33.076,68.376z"/>
		<path fill="#AFDED7" d="M32.73,0.064c-0.138-0.013-0.291,0.077-0.41-0.058c0.139,0,0.276,0,0.416,0
			C32.734,0.026,32.732,0.045,32.73,0.064z"/>
		<path fill="#A0D8D0" d="M68.443,35.992c-0.129-0.121-0.049-0.271-0.061-0.41c0.021,0,0.041-0.002,0.061-0.006
			C68.443,35.714,68.443,35.853,68.443,35.992z"/>
		<path fill="#AFDED7" d="M36.133,0.007c-0.121,0.135-0.271,0.044-0.412,0.059c-0.002-0.02-0.002-0.039-0.004-0.059
			C35.855,0.007,35.994,0.007,36.133,0.007z"/>
		<path fill="#86CFC3" d="M35.369,68.441c0-0.02,0.002-0.043,0.006-0.064c0.137,0.021,0.289-0.057,0.41,0.064
			C35.646,68.441,35.508,68.441,35.369,68.441z"/>
		<path fill="#A0D8D0" d="M0.066,35.582c0,0.115,0,0.23,0,0.346c-0.02,0.002-0.039,0-0.058-0.004c0-0.115,0-0.232,0-0.348
			C0.027,35.58,0.047,35.582,0.066,35.582z"/>
		<path fill="#CDEAE5" d="M0.008,32.179c0.02-0.004,0.04-0.004,0.06-0.004c-0.001,0.115-0.001,0.23-0.002,0.346
			c-0.02-0.002-0.039,0-0.058,0.005C0.008,32.409,0.008,32.294,0.008,32.179z"/>
		<path fill="#CDEAE5" d="M68.383,32.175c0.021,0,0.041,0,0.063,0.004c0,0.115,0,0.23,0,0.347c-0.021-0.005-0.039-0.007-0.061-0.005
			C68.385,32.405,68.385,32.29,68.383,32.175z"/>
		<path fill="#A0D8D0" d="M0.008,32.525c0.019-0.005,0.039-0.005,0.058-0.005c0,0.115,0,0.23,0,0.346
			c-0.019,0-0.039,0.001-0.058,0.005C0.008,32.757,0.008,32.64,0.008,32.525z"/>
		<path fill="#89D0C5" d="M32.73,0.064c0.002-0.019,0.004-0.039,0.006-0.058c0.115,0,0.23,0,0.346,0
			c0,0.021-0.002,0.043-0.006,0.064C32.96,0.069,32.845,0.067,32.73,0.064z"/>
		<path fill="#87CFC4" d="M35.717,0.007c0.002,0.02,0.002,0.039,0.004,0.059c-0.113,0.002-0.229,0.004-0.346,0.006
			c-0.004-0.021-0.006-0.043-0.006-0.065C35.486,0.007,35.6,0.007,35.717,0.007z"/>
		<path fill="#CDEAE5" d="M0.008,35.923c0.019,0.004,0.039,0.004,0.058,0.004c0,0.115,0.001,0.23,0.001,0.346
			c-0.02,0-0.04,0-0.06-0.004C0.008,36.154,0.008,36.039,0.008,35.923z"/>
		<path fill="#A0D8D0" d="M68.385,32.521c0.021,0,0.039,0,0.061,0.005c0,0.116,0,0.231,0,0.347
			c-0.021-0.003-0.039-0.005-0.061-0.005C68.385,32.751,68.385,32.636,68.385,32.521z"/>
		<path fill="#7ECDC1" d="M0.008,32.871c0.019-0.004,0.039-0.005,0.058-0.005c0.001,0.115,0.002,0.229,0.003,0.344
			c-0.021,0.002-0.041,0.004-0.061,0.008C0.008,33.103,0.008,32.987,0.008,32.871z"/>
		<path fill="#7ACBBE" d="M68.385,32.866c0.021,0,0.039,0.002,0.061,0.005c0,0.116,0,0.231,0,0.347
			c-0.021-0.002-0.043-0.004-0.064-0.006C68.381,33.097,68.383,32.981,68.385,32.866z"/>
		<path fill="#7ECDC1" d="M0.066,35.582c-0.02,0-0.039-0.002-0.058-0.006c0-0.115,0-0.23,0-0.346c0.02,0.004,0.04,0.006,0.061,0.008
			C0.068,35.353,0.067,35.468,0.066,35.582z"/>
		<path fill="#7ACBBE" d="M68.443,35.576c-0.02,0.004-0.039,0.006-0.061,0.006c0-0.115-0.002-0.23-0.004-0.346
			c0.021-0.002,0.043-0.004,0.064-0.006C68.443,35.345,68.443,35.46,68.443,35.576z"/>
		<path fill="#FABF95" d="M25.861,24.605c1.976,0.529,3.986,0.888,5.996,1.261c0.771,0.143,1.547,0.26,2.32,0.389
			c-0.271,0.033-0.544,0.069-0.816,0.103c-0.75,0.09-1.513,0.103-2.236,0.345c-0.1,0.034-0.28,0.002-0.258,0.204
			c-0.068,0.024-0.137,0.051-0.205,0.077c-0.107-0.078-0.199-0.016-0.283,0.043c-0.764,0.537-1.525,1.076-2.288,1.615
			c-0.896,0.506-1.731,1.104-2.604,1.645c-0.149,0.092-0.154,0.186-0.031,0.301c-0.233,0.049-0.159,0.192-0.08,0.309
			c0.477,0.701,1.043,1.291,1.91,1.498c0.809,0.195,1.531-0.055,2.217-0.441c0.369-0.208,0.758-0.333,1.169-0.406
			c1.167-0.209,2.345-0.113,3.521-0.127c-0.043,0.133-0.002,0.225,0.135,0.268c0.078,0.084,0.149,0.177,0.236,0.25
			c1.01,0.859,2.063,1.654,3.17,2.393c3,2.006,5.965,4.066,8.945,6.104c1.789,1.225,3.582,2.443,5.375,3.666
			c0.453,0.311,0.838,0.686,1.113,1.164c0.902,1.574-0.176,3.438-1.992,3.445c-0.109,0.002-0.223,0.002-0.438,0.002
			c0.381,0.254,0.689,0.459,0.996,0.668c0.598,0.404,1.014,0.947,1.172,1.652c0.227,1-0.037,1.859-0.861,2.496
			c-0.783,0.605-1.986,0.652-2.842,0.139c-0.336-0.199-0.666-0.414-0.996-0.621c-0.256-0.221-0.551-0.379-0.834-0.555
			c-0.209-0.137-0.42-0.273-0.629-0.412c-0.141-0.092-0.279-0.184-0.418-0.275s-0.277-0.186-0.416-0.277
			c-0.127-0.084-0.256-0.168-0.385-0.252c-0.014,0.014-0.025,0.027-0.037,0.043c0.025,0.045,0.053,0.092,0.078,0.139
			c-0.107-0.016-0.186-0.09-0.27-0.146c-1.475-1.033-2.951-2.064-4.428-3.096c-1.531-1.072-3.061-2.15-4.594-3.221
			c-1.061-0.738-2.125-1.471-3.19-2.205c0.337-0.322,0.335-0.463-0.006-0.654c-0.934-0.533-1.207-1.123-1.01-2.209
			c0.034-0.193,0.037-0.355-0.179-0.418c-0.233-0.068-0.346,0.082-0.401,0.273c-0.104,0.355-0.162,0.707-0.099,1.088
			c0.052,0.307,0.278,0.559,0.235,0.881c-0.25-0.16-0.457-0.391-0.777-0.449c0.352,0.268,0.702,0.531,1.055,0.801
			c0.301,0.229,0.604,0.459,0.905,0.689c0.078,0.049,0.161,0.092,0.235,0.146c1.218,0.912,2.43,1.832,3.655,2.738
			c1.436,1.063,2.814,2.207,4.314,3.18c1.617,1.045,3.27,2.037,4.908,3.047c0.164,0.1,0.316,0.236,0.564,0.287
			c-0.127-0.131-0.215-0.219-0.301-0.309c0.025-0.006,0.051-0.01,0.076-0.014c0.141,0.092,0.281,0.184,0.42,0.273
			c0.209,0.139,0.416,0.277,0.623,0.414c0.277,0.186,0.555,0.371,0.832,0.555c0.807,0.703,1.182,1.572,0.91,2.629
			c-0.391,1.518-2.199,2.156-3.584,1.283c-0.801-0.504-1.578-1.043-2.369-1.563c-0.1-0.064-0.186-0.174-0.348-0.166
			c0.102,0.229,0.215,0.438,0.287,0.658c0.252,0.787,0.016,1.598-0.598,2.1c-0.627,0.518-1.633,0.594-2.377,0.158
			c-1.725-1.006-3.441-2.021-5.164-3.033c-0.209-0.121-0.425-0.229-0.638-0.344c-0.514-0.371-1.072-0.666-1.618-0.982
			c-0.705-0.408-1.383-0.863-2.121-1.215c-0.097-0.066-0.192-0.135-0.29-0.201c-0.039-0.021-0.078-0.045-0.117-0.066
			c-1.408-0.887-2.925-1.563-4.445-2.229c-0.121-0.105-0.262-0.17-0.418-0.207c-1.479-0.879-2.957-1.756-4.437-2.635
			c-0.103-0.092-0.208-0.176-0.344-0.211c-0.07-0.061-0.134-0.127-0.21-0.178c-0.834-0.559-1.646-1.146-2.438-1.764
			c-0.435-0.34-0.818-0.742-1.29-1.035c-0.204-0.34-0.528-0.568-0.794-0.848c-1.166-1.229-2.26-2.514-3.246-3.891
			c0.077,0.053,0.158,0.096,0.23,0.152c0.801,0.627,0.808,0.635,1.587-0.033c1.144-0.979,2.137-2.104,3.099-3.256
			C20.484,32.546,23.515,28.824,25.861,24.605z M39.18,52.847c-0.07-0.045-0.141-0.09-0.211-0.133
			c-0.18-0.117-0.359-0.232-0.539-0.35c-0.256-0.172-0.51-0.346-0.768-0.514c-0.305-0.197-0.584-0.449-0.977-0.465
			c-0.221-0.068-0.432-0.162-0.629-0.285c-1.182-0.742-2.364-1.488-3.551-2.225c-1.678-1.041-3.361-2.072-5.042-3.109
			c-0.149-0.105-0.302-0.211-0.451-0.316c0.062,0.217,0.24,0.279,0.384,0.385c0.146,0.092,0.295,0.182,0.439,0.275
			c3.203,2.049,6.236,4.361,9.588,6.18c0.859,0.467,1.699,0.971,2.588,1.387c0.34,0.295,0.768,0.428,1.176,0.604
			c-0.275-0.182-0.551-0.361-0.826-0.543c0.1-0.227-0.156-0.168-0.213-0.27c-0.123-0.074-0.229-0.184-0.375-0.215
			c-0.129-0.09-0.258-0.18-0.385-0.27C39.32,52.939,39.25,52.892,39.18,52.847z M34.613,37.861
			c-0.047-0.072-0.111-0.119-0.197-0.137c-0.023-0.078-0.079-0.121-0.156-0.139c-0.161-0.199-0.407-0.133-0.594-0.221
			c0.068,0.43,0.473,0.447,0.734,0.635c1.336,0.965,2.678,1.924,4.02,2.881c1.99,1.42,3.91,2.941,5.971,4.256
			c1.721,1.098,3.479,2.137,5.262,3.131c0.277,0.256,0.627,0.389,0.957,0.559c-0.264-0.258-0.57-0.451-0.887-0.631
			c-0.381-0.26-0.758-0.525-1.143-0.781c-2.363-1.572-4.705-3.174-7.021-4.816c-0.779-0.553-1.584-1.072-2.377-1.609
			c-1.139-0.789-2.27-1.586-3.414-2.367C35.387,38.361,35.039,38.05,34.613,37.861z M52.361,51.642
			c0.02-0.221-0.021-0.477-0.16-0.717c-0.332-0.57-0.92-0.822-1.439-1.156c-0.096-0.063-0.205,0.008-0.283,0.076
			c-0.723,0.637-1.264,1.402-1.615,2.297c-0.098,0.244-0.037,0.447,0.207,0.59c0.209,0.123,0.406,0.262,0.605,0.402
			c0.586,0.414,1.199,0.461,1.818,0.1C52.076,52.894,52.389,52.384,52.361,51.642z M48.545,55.15
			c0.035-0.221-0.027-0.475-0.17-0.709c-0.314-0.514-0.854-0.756-1.328-1.074c-0.105-0.07-0.227,0.014-0.313,0.086
			c-0.703,0.607-1.217,1.35-1.545,2.215c-0.084,0.219-0.016,0.373,0.184,0.492c0.217,0.131,0.426,0.277,0.633,0.422
			c0.521,0.359,1.086,0.41,1.635,0.129C48.232,56.404,48.582,55.908,48.545,55.15z M53.053,46.486
			c-0.025-0.396-0.127-0.746-0.396-1.025c-0.299-0.311-0.676-0.52-1.02-0.77c-0.123-0.09-0.238-0.049-0.348,0.037
			c-0.713,0.563-1.189,1.303-1.559,2.117c-0.107,0.236-0.041,0.41,0.191,0.545c0.219,0.125,0.416,0.287,0.625,0.432
			c0.523,0.365,1.068,0.393,1.627,0.084C52.74,47.593,52.996,47.091,53.053,46.486z M42.652,56.621
			c0.002-0.484-0.172-0.873-0.6-1.131c-0.197-0.117-0.398-0.23-0.584-0.367c-0.188-0.139-0.338-0.1-0.488,0.049
			c-0.504,0.49-0.85,1.084-1.123,1.723c-0.123,0.287-0.09,0.531,0.244,0.674c0.189,0.08,0.357,0.209,0.543,0.303
			C41.598,58.357,42.648,57.701,42.652,56.621z M29.099,43.794c0.014-0.16-0.113-0.328-0.257-0.359
			c-0.155-0.031-0.233,0.059-0.294,0.184c-0.396,0.828,0.238,2.203,1.129,2.451c0.167,0.047,0.305,0.006,0.383-0.145
			c0.072-0.141,0.03-0.275-0.093-0.371c-0.091-0.07-0.192-0.125-0.294-0.184c-0.424-0.24-0.6-0.625-0.611-1.094
			C29.059,44.117,29.086,43.955,29.099,43.794z M35.033,36.033c0.056-0.221,0.019-0.432-0.242-0.475
			c-0.271-0.045-0.293,0.189-0.331,0.385c-0.14,0.711,0.276,1.488,0.97,1.809c0.229,0.104,0.461,0.164,0.586-0.123
			c0.115-0.271-0.111-0.355-0.303-0.447C35.25,36.958,34.994,36.529,35.033,36.033z M25.904,47.83
			c-0.002-0.115-0.125-0.27-0.279-0.295c-0.184-0.031-0.237,0.104-0.291,0.232c-0.285,0.682,0.088,1.605,0.775,1.934
			c0.18,0.086,0.362,0.139,0.478-0.08c0.11-0.211-0.011-0.338-0.194-0.441c-0.316-0.182-0.531-0.447-0.557-0.822
			C25.824,48.201,25.873,48.041,25.904,47.83z M43.225,45.021c-0.156,0.002-0.215,0.105-0.279,0.201
			c-0.479,0.691-0.957,1.387-1.434,2.08c-0.066,0.096-0.131,0.191-0.186,0.293c-0.059,0.104-0.104,0.23,0.01,0.314
			c0.131,0.098,0.215-0.027,0.279-0.115c0.158-0.215,0.307-0.434,0.457-0.652c0.396-0.58,0.797-1.16,1.191-1.742
			C43.361,45.259,43.443,45.115,43.225,45.021z M40.068,48.935c0-0.109-0.035-0.17-0.109-0.189
			c-0.107-0.027-0.178,0.049-0.229,0.119c-0.559,0.768-1.109,1.533-1.662,2.305c-0.064,0.09-0.086,0.201,0.012,0.279
			c0.113,0.088,0.188-0.02,0.262-0.088c0.043-0.041,0.08-0.086,0.113-0.133c0.504-0.703,1.008-1.406,1.51-2.111
			C40.008,49.052,40.043,48.98,40.068,48.935z M44.426,39.814c-0.002-0.094-0.023-0.145-0.082-0.172
			c-0.104-0.049-0.184,0.002-0.238,0.078c-0.176,0.23-0.344,0.465-0.51,0.699c-0.365,0.518-0.73,1.033-1.096,1.555
			c-0.064,0.094-0.158,0.203-0.029,0.303c0.141,0.107,0.23-0.008,0.314-0.107c0.014-0.018,0.023-0.037,0.039-0.057
			c0.494-0.693,0.988-1.389,1.48-2.084C44.357,39.953,44.395,39.869,44.426,39.814z M35.029,51.443
			c-0.131,0.004-0.176,0.09-0.225,0.166c-0.257,0.398-0.512,0.797-0.768,1.195c-0.154,0.242-0.313,0.482-0.463,0.729
			c-0.055,0.09-0.106,0.205,0.004,0.279c0.119,0.078,0.189-0.031,0.246-0.117c0.09-0.135,0.17-0.273,0.256-0.41
			c0.322-0.506,0.645-1.012,0.965-1.518C35.119,51.65,35.213,51.529,35.029,51.443z M41.146,46.726
			c0.029-0.014,0.086-0.02,0.109-0.051c0.318-0.408,0.631-0.818,0.873-1.277c0.035-0.066,0.02-0.143-0.045-0.186
			c-0.084-0.059-0.162-0.012-0.209,0.055c-0.287,0.404-0.57,0.809-0.844,1.219C40.967,46.582,40.988,46.689,41.146,46.726z
			 M38.889,49.072c0.01-0.092-0.006-0.148-0.063-0.176c-0.092-0.043-0.156,0.018-0.203,0.082c-0.256,0.354-0.508,0.707-0.758,1.063
			c-0.055,0.076-0.096,0.178-0.006,0.248c0.111,0.092,0.193,0.004,0.256-0.082c0.246-0.344,0.49-0.689,0.732-1.037
			C38.873,49.132,38.883,49.085,38.889,49.072z M43.162,39.759c-0.029,0.012-0.072,0.018-0.09,0.041
			c-0.291,0.4-0.58,0.803-0.863,1.209c-0.045,0.063-0.02,0.135,0.051,0.176c0.07,0.043,0.143,0.016,0.186-0.043
			c0.275-0.383,0.553-0.768,0.82-1.156C43.34,39.878,43.309,39.787,43.162,39.759z M33.382,52.875
			c0.036-0.023,0.098-0.043,0.125-0.086c0.213-0.326,0.421-0.654,0.625-0.986c0.04-0.064,0.021-0.139-0.059-0.172
			c-0.076-0.031-0.138,0.01-0.176,0.068c-0.207,0.316-0.414,0.635-0.613,0.957C33.236,52.74,33.232,52.835,33.382,52.875z"/>
		<path fill="#f58221" d="M0.212,30.708c0.072-1.271,0.299-2.52,0.573-3.758c1.453-6.571,4.57-12.232,9.323-16.995
			c0.065-0.064,0.138-0.121,0.207-0.181c0.94,0.8,1.877,1.604,2.822,2.399c2.719,2.291,5.44,4.579,8.161,6.868
			c1.068,0.899,2.136,1.801,3.208,2.697c0.435,0.364,0.438,0.358,0.284,0.903c-0.016,0.055-0.021,0.113-0.031,0.169
			c-0.354,0.673-0.7,1.351-1.121,1.985c-3.391,5.107-7.084,9.972-11.428,14.317c-0.204,0.15-0.402,0.311-0.612,0.453
			c-0.393,0.266-0.503,0.262-0.855-0.033c-1.053-0.881-2.102-1.768-3.152-2.65c-2.366-1.99-4.732-3.98-7.1-5.968
			C0.403,30.841,0.305,30.777,0.212,30.708z"/>
		<path fill="#f58221" d="M58.133,9.772c1.271,1.184,2.396,2.497,3.438,3.884c3.373,4.494,5.518,9.516,6.432,15.06
			c0.109,0.66,0.229,1.319,0.236,1.991c-0.775,0.544-1.449,1.208-2.172,1.813c-2.041,1.708-4.068,3.432-6.102,5.153
			c-0.555,0.469-1.105,0.939-1.658,1.408c-0.461,0.393-0.486,0.396-0.996,0.104c-0.473-0.354-0.912-0.746-1.318-1.172
			c-3.793-3.98-7.129-8.325-10.211-12.869c-0.445-0.658-0.848-1.345-1.27-2.018c-0.063-0.346-0.285-0.627-0.389-0.959
			c-0.094-0.302-0.045-0.515,0.209-0.726c1.4-1.167,2.789-2.349,4.182-3.526c2.055-1.736,4.107-3.472,6.158-5.209
			C55.826,11.728,56.979,10.749,58.133,9.772z"/>
		<path fill="#F1A977" d="M52.053,44.097c-1.793-1.223-3.586-2.441-5.375-3.666c-2.98-2.037-5.945-4.098-8.945-6.104
			c-1.105-0.739-2.16-1.534-3.17-2.393c-0.087-0.073-0.158-0.166-0.236-0.25c0.137-0.182,0.117-0.284-0.135-0.269
			c-1.175,0.017-2.353-0.081-3.521,0.128c-0.411,0.074-0.8,0.198-1.168,0.406c-0.687,0.387-1.408,0.637-2.218,0.441
			c-0.867-0.207-1.434-0.797-1.91-1.498c-0.079-0.116-0.153-0.26,0.08-0.311c0.388,0.266,0.818,0.545,1.267,0.25
			c0.776-0.512,1.399-1.158,1.369-2.193c0.763-0.539,1.524-1.08,2.289-1.617c0.084-0.059,0.175-0.12,0.284-0.043
			c0.002,0.302,0.091,0.587,0.166,0.875c0.025,0.094,0.092,0.168,0.203,0.14c0.094-0.022,0.123-0.11,0.108-0.192
			c-0.054-0.311-0.042-0.643-0.274-0.898c-0.021-0.202,0.158-0.17,0.258-0.204c0.725-0.242,1.486-0.254,2.236-0.345
			c0.272-0.032,0.545-0.067,0.817-0.102c3.205-0.482,6.406-0.974,9.5-1.975c0.305,0.728,0.695,1.408,1.119,2.07
			c1.689,2.654,3.584,5.162,5.564,7.604c1.68,2.072,3.342,4.162,5.402,5.887c-1.107,1.443-2.27,2.838-3.59,4.094
			C52.125,43.98,52.092,44.041,52.053,44.097z M26.814,31.14c0.008,0.037,0.018,0.072,0.026,0.107
			c2.953-0.953,5.972-1.57,9.066-1.806c-0.121-0.142-0.252-0.099-0.373-0.104c-0.657-0.029-1.317-0.02-1.969-0.088
			c-1.23-0.129-2.419-0.07-3.525,0.563c-0.219,0.125-0.465,0.203-0.7,0.299C28.496,30.454,27.656,30.798,26.814,31.14z
			 M31.283,27.017c0.061,0.152-0.013,0.406,0.24,0.467c0.131,0.031,0.184-0.104,0.158-0.209c-0.047-0.186,0.027-0.455-0.251-0.506
			C31.302,26.745,31.283,26.886,31.283,27.017z"/>
		<path fill="#F1A977" d="M25.666,50.134c1.521,0.664,3.037,1.342,4.445,2.229c-0.232,0.162-0.467,0.322-0.699,0.484
			c-0.184,0.117-0.366,0.232-0.549,0.35c-0.185,0.115-0.369,0.23-0.552,0.344c-0.161,0.092-0.329,0.174-0.429,0.342
			c-0.032,0.014-0.063,0.025-0.096,0.041c-0.102,0.045-0.269,0.072-0.191,0.221c0.064,0.123,0.186-0.004,0.264-0.047
			c0.889-0.484,1.773-0.977,2.659-1.465c0.738,0.35,1.416,0.807,2.121,1.215c0.546,0.314,1.104,0.609,1.619,0.98
			c-1.931,1.139-3.854,2.283-5.792,3.408c-0.781,0.453-1.865,0.291-2.475-0.326c-0.604-0.609-0.709-1.543-0.268-2.375
			c0.04-0.074,0.082-0.15,0.128-0.236c-0.163-0.029-0.237,0.074-0.327,0.135c-0.801,0.527-1.59,1.072-2.4,1.584
			c-1.418,0.896-3.305,0.18-3.615-1.379c-0.213-1.068,0.189-1.922,1.02-2.594c0.267-0.182,0.532-0.361,0.799-0.541
			c0.127-0.072,0.256-0.146,0.384-0.219c0.099,0.195,0.207,0.064,0.305,0.006c0.904-0.555,1.802-1.119,2.712-1.66
			C25.031,50.449,25.287,50.173,25.666,50.134z"/>
		<path fill="#F1A977" d="M20.811,47.292c1.479,0.879,2.958,1.756,4.437,2.635c-0.627,0.428-1.24,0.875-1.941,1.18
			c-0.139,0.092-0.277,0.184-0.417,0.277c-0.172,0.096-0.353,0.182-0.487,0.332c-0.201,0.094-0.388,0.213-0.558,0.357
			c-0.211,0.139-0.421,0.275-0.632,0.412c-0.262,0.148-0.521,0.299-0.751,0.492c-0.322,0.203-0.644,0.41-0.966,0.611
			c-1.139,0.711-2.656,0.473-3.406-0.531c-0.781-1.047-0.585-2.572,0.472-3.461c0.374-0.313,0.798-0.568,1.267-0.896
			c-0.248,0-0.416,0.01-0.583-0.002c-1.686-0.107-2.667-1.846-1.884-3.34c0.274-0.521,0.675-0.934,1.167-1.254
			c0.472,0.293,0.855,0.695,1.29,1.035c0.792,0.615,1.604,1.205,2.438,1.764c0.075,0.051,0.14,0.119,0.21,0.178
			c-0.764,0.527-1.525,1.057-2.288,1.584c0.426-0.17,0.808-0.412,1.206-0.625C19.859,47.787,20.267,47.412,20.811,47.292z"/>
		<path fill="#EBF3F5" d="M12.21,39.115c4.344-4.346,8.039-9.21,11.428-14.317c0.421-0.634,0.768-1.313,1.121-1.985
			c0.318,0.248,0.621,0.518,0.958,0.737c0.328,0.213,0.364,0.467,0.226,0.795c-0.035,0.084-0.054,0.175-0.08,0.262
			c-2.346,4.22-5.379,7.94-8.457,11.626c-0.961,1.15-1.955,2.277-3.098,3.256c-0.78,0.668-0.786,0.66-1.587,0.033
			c-0.072-0.057-0.153-0.102-0.23-0.152C12.396,39.283,12.302,39.199,12.21,39.115z"/>
		<path fill="#EBF3F5" d="M55.764,39.841c-2.061-1.725-3.725-3.816-5.402-5.889c-1.98-2.442-3.875-4.948-5.564-7.602
			c-0.424-0.664-0.814-1.343-1.119-2.071c-0.115-0.329-0.02-0.567,0.285-0.746c0.195-0.114,0.367-0.271,0.549-0.409
			c0.422,0.673,0.824,1.36,1.271,2.018c3.08,4.544,6.418,8.889,10.211,12.869c0.406,0.426,0.846,0.818,1.316,1.172
			c-0.27,0.311-0.621,0.527-0.945,0.771C56.141,40.125,55.963,39.89,55.764,39.841z"/>
		<path fill="#66BD9F" d="M48.135,53.107c-0.275-0.186-0.555-0.371-0.83-0.555c0.021-0.021,0.045-0.043,0.066-0.064
			c0.283,0.176,0.578,0.334,0.834,0.557C48.182,53.064,48.158,53.085,48.135,53.107z"/>
		<path fill="#64BA9B" d="M20.461,52.978c0.231-0.193,0.489-0.344,0.751-0.492c0.037,0.006,0.074,0.012,0.113,0.018
			c-0.267,0.182-0.532,0.359-0.799,0.541C20.506,53.021,20.484,53,20.461,52.978z"/>
		<path fill="#E3AA24" d="M41.408,4.785c1.094,1.019,1.865,2.254,2.389,3.645c2.311,6.134-1.539,12.822-8.014,13.862
			c-3.303,0.531-6.217-0.384-8.706-2.63c-0.086-0.077-0.158-0.167-0.236-0.25c0.216-0.394,0.577-0.654,0.891-0.956
			c0.098,0.08,0.199,0.157,0.295,0.241c2.236,1.977,4.838,2.769,7.768,2.211c5.059-0.962,8.215-5.827,7.053-10.889
			c-0.377-1.64-1.193-3.042-2.352-4.253C40.801,5.439,41.104,5.112,41.408,4.785z"/>
		<path fill="#EEB431" d="M27.732,18.456c-0.313,0.302-0.675,0.562-0.891,0.956c-2.717-2.827-3.671-6.176-2.682-9.954
			c0.979-3.742,3.435-6.229,7.156-7.279c3.674-1.037,6.989-0.187,9.854,2.357c0.084,0.076,0.158,0.166,0.236,0.249
			c-0.303,0.327-0.605,0.654-0.91,0.981c-0.021-0.002-0.043-0.004-0.064-0.005c-0.076-0.085-0.146-0.178-0.232-0.253
			C38.26,3.79,36.01,2.987,33.416,3.184c-2.133,0.162-4.004,0.965-5.51,2.474c-2.594,2.595-3.326,5.704-2.301,9.21
			c0.395,1.351,1.127,2.526,2.139,3.516C27.74,18.407,27.736,18.431,27.732,18.456z"/>
		<path fill="#35BCA8" d="M34.877,22.527c-0.522,0-1.044,0-1.566,0c0-0.009-0.001-0.018-0.001-0.027c0.518,0,1.036,0,1.555,0
			C34.869,22.509,34.873,22.517,34.877,22.527z"/>
		<path fill="#FCD5B1" d="M52.361,51.642c0.027,0.742-0.285,1.252-0.867,1.592c-0.619,0.361-1.232,0.314-1.818-0.1
			c-0.199-0.141-0.396-0.279-0.605-0.402c-0.244-0.143-0.305-0.346-0.207-0.59c0.354-0.895,0.893-1.66,1.615-2.297
			c0.078-0.068,0.188-0.139,0.283-0.076c0.521,0.334,1.107,0.586,1.439,1.156C52.34,51.166,52.381,51.421,52.361,51.642z"/>
		<path fill="#FCD5B1" d="M48.545,55.15c0.037,0.758-0.313,1.254-0.904,1.561c-0.551,0.281-1.113,0.23-1.635-0.129
			c-0.209-0.145-0.416-0.291-0.633-0.422c-0.199-0.119-0.268-0.273-0.186-0.492c0.33-0.865,0.842-1.607,1.545-2.215
			c0.088-0.072,0.207-0.156,0.314-0.086c0.475,0.318,1.012,0.561,1.326,1.074C48.516,54.675,48.58,54.929,48.545,55.15z"/>
		<path fill="#FCD5B1" d="M53.053,46.486c-0.057,0.605-0.313,1.107-0.879,1.42c-0.557,0.309-1.102,0.281-1.627-0.084
			c-0.207-0.145-0.406-0.307-0.625-0.432c-0.232-0.135-0.299-0.309-0.191-0.545c0.371-0.814,0.846-1.555,1.561-2.117
			c0.107-0.086,0.225-0.127,0.348-0.037c0.344,0.25,0.721,0.459,1.02,0.77C52.926,45.74,53.027,46.087,53.053,46.486z"/>
		<path fill="#ECAC7F" d="M39.18,40.988c0.795,0.535,1.6,1.055,2.379,1.607c2.314,1.645,4.658,3.246,7.021,4.816
			c0.383,0.258,0.762,0.521,1.141,0.783c-0.021,0.023-0.047,0.049-0.068,0.072c-1.783-0.996-3.541-2.035-5.262-3.133
			c-2.063-1.314-3.98-2.834-5.971-4.254c-1.342-0.959-2.684-1.916-4.022-2.883c-0.261-0.188-0.664-0.203-0.732-0.633
			c0.186,0.088,0.432,0.021,0.593,0.219c-0.082,0.197,0.045,0.16,0.157,0.139c0.084,0.018,0.148,0.064,0.197,0.137
			c-0.125,0.105,0.016,0.131,0.06,0.16c1.417,0.973,2.837,1.941,4.259,2.91C39.006,40.98,39.078,41.052,39.18,40.988z"/>
		<path fill="#FCD5B1" d="M42.652,56.621c-0.004,1.08-1.055,1.734-2.008,1.25c-0.186-0.096-0.354-0.225-0.543-0.305
			c-0.334-0.141-0.367-0.385-0.244-0.672c0.273-0.639,0.619-1.232,1.123-1.725c0.15-0.146,0.301-0.188,0.488-0.049
			c0.186,0.137,0.387,0.25,0.584,0.369C42.48,55.748,42.654,56.136,42.652,56.621z"/>
		<path fill="#ECAC7F" d="M33.085,42.785c1.063,0.734,2.129,1.467,3.19,2.205c1.533,1.07,3.063,2.146,4.594,3.219
			c1.475,1.031,2.951,2.063,4.428,3.096c0.084,0.059,0.16,0.133,0.27,0.148c0.09,0.049,0.18,0.096,0.27,0.145
			c0.117,0.092,0.232,0.186,0.35,0.277c0.088,0.09,0.174,0.18,0.301,0.309c-0.246-0.049-0.4-0.188-0.563-0.287
			c-1.641-1.008-3.293-2-4.908-3.047c-1.502-0.971-2.881-2.117-4.316-3.18c-1.225-0.904-2.436-1.826-3.654-2.738
			c-0.073-0.055-0.156-0.098-0.235-0.145C32.9,42.705,32.992,42.746,33.085,42.785z"/>
		<path fill="#ECAC7F" d="M40.014,53.677c-0.889-0.416-1.729-0.92-2.588-1.387c-3.352-1.818-6.385-4.133-9.587-6.18
			c-0.146-0.094-0.293-0.184-0.44-0.275c0.022-0.021,0.045-0.045,0.067-0.068c1.681,1.037,3.362,2.07,5.041,3.109
			c1.188,0.736,2.368,1.482,3.552,2.225c0.197,0.125,0.408,0.217,0.629,0.285c0.023,0.045,0.047,0.09,0.068,0.135
			c0.121,0.166,0.299,0.229,0.486,0.279l0,0c0.334,0.307,0.709,0.545,1.137,0.699c0.172,0.094,0.346,0.186,0.52,0.277
			c0.068,0.045,0.139,0.092,0.209,0.137c0.092,0.055,0.184,0.109,0.275,0.164c0.094,0.061,0.188,0.119,0.281,0.18
			c0.117,0.086,0.236,0.17,0.354,0.256C40.016,53.568,40.016,53.623,40.014,53.677z"/>
		<path fill="#FCD5B1" d="M28.09,28.642c0.03,1.035-0.593,1.682-1.369,2.193c-0.448,0.295-0.879,0.016-1.267-0.25
			c-0.123-0.113-0.118-0.207,0.031-0.299C26.359,29.746,27.195,29.146,28.09,28.642z"/>
		<path fill="#F4B68B" d="M33.085,42.785c-0.092-0.039-0.186-0.08-0.277,0c-0.302-0.229-0.604-0.459-0.906-0.689
			c0.019-0.203-0.188-0.229-0.275-0.35c0.042-0.322-0.186-0.574-0.235-0.881c-0.063-0.383-0.005-0.732,0.099-1.088
			c0.056-0.193,0.168-0.344,0.401-0.275c0.216,0.063,0.214,0.227,0.179,0.418c-0.197,1.086,0.076,1.676,1.01,2.209
			C33.421,42.324,33.422,42.46,33.085,42.785z"/>
		<path fill="#F4B68C" d="M29.099,43.794c-0.013,0.16-0.04,0.322-0.035,0.482c0.012,0.469,0.186,0.852,0.61,1.092
			c0.101,0.059,0.203,0.113,0.294,0.184c0.123,0.096,0.165,0.23,0.093,0.371c-0.079,0.152-0.216,0.193-0.383,0.146
			c-0.892-0.248-1.524-1.623-1.129-2.451c0.06-0.125,0.14-0.215,0.294-0.184C28.986,43.466,29.113,43.634,29.099,43.794z"/>
		<path fill="#F4B68C" d="M35.033,36.033c-0.039,0.496,0.217,0.926,0.68,1.148c0.191,0.09,0.418,0.176,0.303,0.447
			c-0.123,0.287-0.357,0.227-0.586,0.123c-0.692-0.32-1.11-1.098-0.97-1.809c0.038-0.195,0.062-0.43,0.331-0.385
			C35.051,35.601,35.088,35.812,35.033,36.033z"/>
		<path fill="#F4B68C" d="M25.904,47.83c-0.031,0.211-0.08,0.371-0.068,0.527c0.023,0.375,0.24,0.641,0.557,0.822
			c0.184,0.104,0.305,0.23,0.194,0.439c-0.114,0.221-0.296,0.166-0.478,0.08c-0.688-0.324-1.061-1.25-0.775-1.934
			c0.054-0.129,0.107-0.264,0.291-0.232C25.779,47.562,25.902,47.714,25.904,47.83z"/>
		<path fill="#FCD5B1" d="M43.225,45.021c0.219,0.094,0.137,0.238,0.041,0.379c-0.396,0.582-0.795,1.162-1.193,1.742
			c-0.15,0.219-0.299,0.438-0.457,0.652c-0.064,0.088-0.148,0.213-0.279,0.115c-0.111-0.084-0.066-0.211-0.01-0.314
			c0.055-0.102,0.119-0.197,0.186-0.293c0.479-0.693,0.955-1.387,1.436-2.08C43.012,45.126,43.07,45.023,43.225,45.021z"/>
		<path fill="#ECAC7F" d="M23.305,51.107c0.701-0.305,1.315-0.752,1.942-1.18c0.154,0.037,0.296,0.102,0.416,0.207
			c-0.377,0.039-0.635,0.314-0.938,0.496c-0.912,0.539-1.809,1.105-2.712,1.658c-0.099,0.063-0.207,0.191-0.305-0.004
			c0.079-0.066,0.159-0.135,0.239-0.201c0.149-0.096,0.301-0.191,0.451-0.287c0.184-0.115,0.366-0.23,0.549-0.348
			C23.074,51.341,23.293,51.332,23.305,51.107z"/>
		<path fill="#FCD5B1" d="M40.068,48.935c-0.025,0.045-0.061,0.117-0.105,0.182c-0.502,0.705-1.006,1.408-1.51,2.111
			c-0.033,0.047-0.07,0.092-0.111,0.133c-0.074,0.068-0.148,0.176-0.264,0.088c-0.098-0.078-0.076-0.189-0.01-0.279
			c0.551-0.771,1.104-1.537,1.66-2.305c0.053-0.07,0.123-0.146,0.23-0.119C40.035,48.765,40.068,48.826,40.068,48.935z"/>
		<path fill="#FCD5B1" d="M44.426,39.814c-0.031,0.055-0.068,0.139-0.121,0.213c-0.492,0.695-0.986,1.389-1.48,2.084
			c-0.016,0.021-0.025,0.039-0.039,0.059c-0.084,0.1-0.174,0.215-0.314,0.105c-0.129-0.1-0.035-0.209,0.029-0.303
			c0.363-0.52,0.73-1.037,1.096-1.553c0.166-0.236,0.334-0.471,0.508-0.699c0.059-0.076,0.139-0.127,0.24-0.078
			C44.402,39.669,44.424,39.72,44.426,39.814z"/>
		<path fill="#FCD5B1" d="M35.029,51.443c0.184,0.086,0.09,0.207,0.017,0.324c-0.32,0.506-0.644,1.012-0.964,1.518
			c-0.086,0.139-0.168,0.277-0.256,0.41c-0.058,0.088-0.127,0.197-0.246,0.117c-0.11-0.074-0.06-0.189-0.004-0.279
			c0.15-0.244,0.308-0.484,0.463-0.729c0.255-0.398,0.51-0.797,0.766-1.193C34.853,51.533,34.898,51.447,35.029,51.443z"/>
		<path fill="#EDAB7F" d="M30.518,52.63c-0.886,0.488-1.771,0.98-2.659,1.465c-0.078,0.043-0.197,0.17-0.264,0.047
			c-0.077-0.146,0.09-0.176,0.191-0.221c0.031-0.014,0.063-0.027,0.096-0.041c0.191-0.037,0.343-0.148,0.484-0.275
			c0.186-0.115,0.371-0.232,0.556-0.348s0.37-0.23,0.555-0.348c0.257-0.15,0.53-0.275,0.751-0.48
			C30.324,52.496,30.421,52.564,30.518,52.63z"/>
		<path fill="#F0AA78" d="M39.18,40.988c-0.102,0.064-0.176-0.008-0.248-0.059c-1.422-0.967-2.842-1.938-4.259-2.908
			c-0.044-0.031-0.185-0.055-0.06-0.162c0.426,0.189,0.774,0.502,1.153,0.762C36.912,39.4,38.043,40.197,39.18,40.988z"/>
		<path fill="#FCD5B1" d="M41.146,46.726c-0.158-0.037-0.18-0.145-0.115-0.24c0.273-0.41,0.559-0.814,0.844-1.219
			c0.047-0.066,0.125-0.113,0.211-0.055c0.063,0.043,0.078,0.119,0.043,0.186c-0.24,0.459-0.555,0.871-0.873,1.277
			C41.232,46.707,41.178,46.712,41.146,46.726z"/>
		<path fill="#FCD5B1" d="M38.889,49.072c-0.006,0.016-0.016,0.063-0.041,0.098c-0.242,0.348-0.486,0.693-0.732,1.037
			c-0.063,0.086-0.145,0.174-0.256,0.082c-0.09-0.07-0.049-0.172,0.006-0.248c0.25-0.355,0.502-0.709,0.758-1.063
			c0.047-0.064,0.111-0.125,0.203-0.082C38.883,48.921,38.898,48.98,38.889,49.072z"/>
		<path fill="#EDAB7F" d="M20.811,47.292c-0.543,0.119-0.952,0.494-1.426,0.748c-0.397,0.213-0.78,0.455-1.206,0.625
			c0.762-0.527,1.525-1.057,2.287-1.584C20.603,47.117,20.709,47.201,20.811,47.292z"/>
		<path fill="#FCD5B1" d="M43.162,39.759c0.146,0.027,0.178,0.119,0.104,0.227c-0.27,0.391-0.545,0.773-0.82,1.156
			c-0.043,0.059-0.113,0.086-0.186,0.043c-0.07-0.041-0.096-0.113-0.051-0.176c0.283-0.406,0.572-0.809,0.863-1.209
			C43.09,39.775,43.133,39.771,43.162,39.759z"/>
		<path fill="#FCD5B1" d="M33.382,52.875c-0.15-0.039-0.146-0.135-0.096-0.219c0.197-0.322,0.404-0.641,0.611-0.957
			c0.039-0.059,0.1-0.1,0.178-0.066c0.08,0.031,0.097,0.105,0.058,0.17c-0.204,0.332-0.412,0.66-0.625,0.986
			C33.48,52.832,33.418,52.851,33.382,52.875z"/>
		<path fill="#FCD4B1" d="M30.867,26.905c0.23,0.257,0.22,0.589,0.273,0.898c0.014,0.082-0.016,0.168-0.107,0.192
			c-0.111,0.026-0.178-0.046-0.203-0.142c-0.076-0.286-0.166-0.571-0.168-0.873C30.73,26.956,30.798,26.931,30.867,26.905z"/>
		<path fill="#F1A978" d="M36.756,51.521c-0.021-0.045-0.045-0.09-0.066-0.135c0.391,0.018,0.67,0.268,0.975,0.465
			c0.258,0.168,0.512,0.344,0.77,0.516c-0.025,0.021-0.049,0.041-0.072,0.063c-0.389-0.184-0.707-0.486-1.117-0.627l0,0
			C37.121,51.636,36.941,51.574,36.756,51.521z"/>
		<path fill="#F1B287" d="M40.014,53.677c0.002-0.055,0.002-0.109,0.004-0.164c0.047,0.012,0.092,0.021,0.137,0.033
			c0.07,0.063,0.139,0.127,0.209,0.191c0.275,0.182,0.551,0.361,0.826,0.541C40.781,54.105,40.354,53.972,40.014,53.677z"/>
		<path fill="#EFB185" d="M31.626,41.746c0.086,0.121,0.294,0.146,0.275,0.35c-0.352-0.268-0.703-0.533-1.054-0.799
			C31.169,41.355,31.375,41.585,31.626,41.746z"/>
		<path fill="#F1B387" d="M49.652,48.267c0.021-0.023,0.047-0.047,0.07-0.072c0.316,0.182,0.621,0.373,0.885,0.631
			C50.279,48.656,49.93,48.523,49.652,48.267z"/>
		<path fill="#5BBA9C" d="M30.228,52.429c-0.222,0.205-0.494,0.33-0.751,0.48c-0.021-0.021-0.043-0.041-0.065-0.063
			c0.233-0.162,0.467-0.324,0.701-0.484C30.15,52.384,30.189,52.408,30.228,52.429z"/>
		<path fill="#50BEA4" d="M38.359,52.427c0.023-0.02,0.047-0.041,0.07-0.063c0.18,0.117,0.359,0.232,0.539,0.35
			c-0.023,0.02-0.049,0.041-0.072,0.063c-0.172-0.092-0.346-0.184-0.518-0.275C38.371,52.476,38.365,52.451,38.359,52.427z"/>
		<path fill="#89BE9E" d="M47.371,52.488c-0.021,0.021-0.045,0.043-0.066,0.064c-0.209-0.139-0.416-0.277-0.623-0.414
			c0.021-0.021,0.041-0.041,0.063-0.063C46.951,52.214,47.162,52.351,47.371,52.488z"/>
		<path fill="#C1BE9B" d="M46.184,51.875c-0.117-0.092-0.232-0.186-0.35-0.277c0.025-0.025,0.049-0.051,0.074-0.074
			c0.139,0.092,0.275,0.186,0.416,0.277c-0.021,0.021-0.043,0.041-0.064,0.063C46.236,51.867,46.209,51.871,46.184,51.875z"/>
		<path fill="#F2B488" d="M27.466,45.767c-0.021,0.023-0.045,0.047-0.066,0.07c-0.145-0.105-0.322-0.17-0.385-0.387
			C27.166,45.556,27.316,45.662,27.466,45.767z"/>
		<path fill="#D8BE98" d="M45.91,51.523c-0.025,0.023-0.051,0.049-0.076,0.074c-0.09-0.049-0.18-0.096-0.27-0.145
			c-0.025-0.047-0.053-0.094-0.078-0.139c0.012-0.016,0.025-0.029,0.037-0.043C45.652,51.355,45.781,51.439,45.91,51.523z"/>
		<path fill="#A9BE9C" d="M46.262,51.863c0.021-0.02,0.041-0.041,0.063-0.063c0.141,0.092,0.279,0.184,0.418,0.275
			c-0.021,0.021-0.041,0.041-0.063,0.063C46.541,52.046,46.4,51.955,46.262,51.863z"/>
		<path fill="#3EBCA4" d="M34.189,31.417c0.254-0.016,0.272,0.088,0.137,0.27C34.189,31.644,34.148,31.552,34.189,31.417z"/>
		<path fill="#A6BF9D" d="M40.154,53.546c-0.045-0.012-0.09-0.021-0.137-0.033c-0.117-0.086-0.234-0.17-0.354-0.256
			c0.037,0,0.074-0.002,0.111-0.004c0.146,0.031,0.25,0.141,0.375,0.215C40.152,53.494,40.154,53.521,40.154,53.546z"/>
		<path fill="#88BF9F" d="M39.775,53.253c-0.037,0.002-0.074,0.004-0.111,0.004c-0.094-0.061-0.188-0.119-0.281-0.18
			c0.002-0.031,0.006-0.063,0.008-0.094C39.518,53.074,39.646,53.164,39.775,53.253z"/>
		<path fill="#CBBE99" d="M40.154,53.546c0-0.025-0.002-0.053-0.004-0.078c0.057,0.102,0.313,0.043,0.213,0.27
			C40.293,53.673,40.225,53.611,40.154,53.546z"/>
		<path fill="#70BEA0" d="M38.896,52.777c0.023-0.02,0.049-0.041,0.072-0.063c0.07,0.045,0.141,0.09,0.211,0.133
			c-0.023,0.021-0.049,0.045-0.072,0.066C39.037,52.869,38.967,52.824,38.896,52.777z"/>
		<path fill="#94B997" d="M34.416,37.724c-0.11,0.02-0.238,0.059-0.155-0.139C34.336,37.603,34.392,37.646,34.416,37.724z"/>
		<path fill="#7DBD9F" d="M39.107,52.914c0.023-0.021,0.049-0.045,0.072-0.066c0.07,0.045,0.141,0.092,0.211,0.137
			c-0.004,0.031-0.006,0.064-0.008,0.094C39.291,53.023,39.199,52.968,39.107,52.914z"/>
		<path fill="#ECAC7F" d="M26.814,31.14c0.842-0.342,1.684-0.686,2.524-1.029c0.235-0.096,0.481-0.174,0.7-0.299
			c1.106-0.633,2.295-0.691,3.525-0.563c0.652,0.068,1.313,0.06,1.969,0.089c0.121,0.004,0.252-0.037,0.373,0.104
			c-3.095,0.236-6.114,0.854-9.066,1.806C26.832,31.212,26.822,31.177,26.814,31.14z"/>
		<path fill="#FAD2AE" d="M31.283,27.017c0-0.131,0.02-0.271,0.146-0.248c0.277,0.051,0.204,0.32,0.251,0.506
			c0.026,0.104-0.028,0.24-0.159,0.209C31.271,27.423,31.343,27.171,31.283,27.017z"/>
		<path fill="#7FB795" d="M21.949,52.083c-0.08,0.066-0.16,0.135-0.238,0.201c-0.129,0.072-0.256,0.146-0.385,0.219
			c-0.037-0.006-0.074-0.012-0.112-0.018c0.211-0.137,0.421-0.273,0.632-0.412C21.879,52.078,21.914,52.08,21.949,52.083z"/>
		<path fill="#80B794" d="M29.412,52.847c0.021,0.021,0.043,0.043,0.064,0.063c-0.186,0.117-0.369,0.232-0.555,0.348
			c-0.02-0.02-0.04-0.039-0.059-0.061C29.045,53.08,29.228,52.964,29.412,52.847z"/>
		<path fill="#ABB189" d="M28.863,53.197c0.02,0.021,0.039,0.039,0.059,0.061c-0.186,0.115-0.37,0.232-0.555,0.35
			c-0.02-0.021-0.037-0.045-0.057-0.066C28.494,53.425,28.678,53.312,28.863,53.197z"/>
		<path fill="#D8AD7D" d="M28.311,53.539c0.019,0.021,0.037,0.045,0.056,0.066c-0.142,0.125-0.291,0.236-0.484,0.275
			C27.982,53.712,28.15,53.63,28.311,53.539z"/>
		<path fill="#BBAE84" d="M22.949,51.449c-0.183,0.115-0.365,0.23-0.549,0.348c0-0.027,0.002-0.055,0.002-0.08
			c0.135-0.15,0.315-0.234,0.486-0.332C22.91,51.406,22.929,51.427,22.949,51.449z"/>
		<path fill="#D7AC7D" d="M22.949,51.449c-0.021-0.021-0.041-0.043-0.061-0.064c0.139-0.094,0.277-0.186,0.417-0.277
			C23.293,51.332,23.074,51.341,22.949,51.449z"/>
		<path fill="#9CB28C" d="M22.402,51.716c0,0.025,0,0.053-0.002,0.08c-0.15,0.096-0.301,0.191-0.451,0.287
			c-0.035-0.004-0.069-0.006-0.104-0.01C22.014,51.929,22.201,51.81,22.402,51.716z"/>
		<path fill="#F1D55A" d="M27.732,18.456c0.004-0.024,0.006-0.049,0.01-0.073c0.979-0.919,1.931-1.869,2.849-2.85
			c0.021,0.002,0.042,0.004,0.063,0.005c0.457,0.727,1.203,0.974,1.975,1.161c0.63,0.153,0.634,0.14,0.654,0.794
			c0.019,0.529,0.233,0.781,0.701,0.818c0.615,0.049,0.896-0.145,0.988-0.7c0.029-0.181,0.043-0.367,0.04-0.551
			c-0.003-0.209,0.075-0.317,0.291-0.352c0.414-0.066,0.793-0.236,1.162-0.436c1.572-0.85,1.797-3.362,0.113-4.307
			c-0.51-0.287-1.043-0.487-1.614-0.602c-0.004-0.021-0.008-0.042-0.01-0.063c0.487-0.507,0.973-1.015,1.459-1.522
			c0.02,0,0.043,0.001,0.064,0.002c0.299,0.34,0.385,0.344,0.701,0.027c0.182-0.18,0.318-0.381,0.35-0.644
			c0.068-0.12,0.068-0.239,0-0.359c-0.002-0.022-0.004-0.044-0.01-0.066c0.006-0.024,0.008-0.049,0.012-0.073
			c0.986-0.947,1.961-1.91,2.898-2.906c0.021,0.001,0.043,0.003,0.064,0.005c1.158,1.211,1.975,2.613,2.352,4.253
			c1.162,5.062-1.994,9.926-7.053,10.889c-2.928,0.558-5.531-0.234-7.768-2.211C27.931,18.613,27.83,18.536,27.732,18.456z"/>
		<path fill="#F3DD7E" d="M30.591,15.533c-0.918,0.981-1.869,1.93-2.85,2.849c-1.012-0.99-1.744-2.166-2.139-3.516
			c-1.025-3.506-0.292-6.615,2.301-9.21c1.508-1.508,3.379-2.312,5.512-2.474c2.592-0.196,4.846,0.606,6.782,2.324
			c0.086,0.076,0.158,0.168,0.234,0.253c-0.939,0.996-1.912,1.959-2.9,2.906c-0.199-0.379-0.48-0.672-0.863-0.872
			c-0.416-0.216-0.859-0.342-1.316-0.415c-0.25-0.04-0.341-0.151-0.323-0.388c0.008-0.092,0.004-0.185,0-0.277
			c-0.021-0.564-0.285-0.846-0.819-0.869c-0.562-0.024-0.857,0.226-0.927,0.793c-0.021,0.16-0.055,0.323-0.043,0.481
			c0.016,0.2-0.051,0.287-0.248,0.334c-0.476,0.113-0.916,0.307-1.311,0.606c-1.477,1.119-1.292,3.4,0.342,4.251
			c0.402,0.209,0.827,0.352,1.266,0.461c0.052,0.139-0.076,0.177-0.144,0.245c-0.458,0.471-0.918,0.939-1.378,1.409
			c-0.104-0.089-0.227-0.165-0.311-0.27c-0.17-0.211-0.323-0.193-0.521-0.034C30.49,14.482,30.369,14.946,30.591,15.533z"/>
		<path fill="#F3B488" d="M38.359,52.427c0.006,0.023,0.012,0.049,0.02,0.074c-0.428-0.156-0.803-0.395-1.137-0.701
			C37.652,51.941,37.971,52.246,38.359,52.427z"/>
		<path fill="#F3B488" d="M36.756,51.521c0.188,0.053,0.365,0.115,0.486,0.279C37.055,51.751,36.877,51.687,36.756,51.521z"/>
		<path fill="#E3AA24" d="M34.965,11.366c0.57,0.115,1.105,0.315,1.615,0.602c1.682,0.944,1.457,3.457-0.115,4.307
			c-0.369,0.2-0.748,0.37-1.162,0.436c-0.214,0.034-0.292,0.143-0.29,0.352c0.003,0.184-0.011,0.37-0.04,0.551
			c-0.092,0.555-0.373,0.749-0.989,0.7c-0.467-0.037-0.682-0.289-0.699-0.818c-0.021-0.655-0.025-0.642-0.655-0.794
			c-0.771-0.187-1.517-0.435-1.976-1.161c0.373-0.349,0.744-0.697,1.116-1.045c0.089,0.055,0.175,0.111,0.265,0.164
			c0.91,0.53,1.873,0.719,2.894,0.407c0.505-0.154,0.736-0.526,0.728-1.015c-0.008-0.453-0.309-0.675-0.665-0.846
			c-0.473-0.226-0.994-0.299-1.492-0.44c0.23-0.242,0.449-0.494,0.693-0.722C34.441,11.807,34.628,11.5,34.965,11.366z"/>
		<path fill="#EEB431" d="M34.965,11.366c-0.336,0.135-0.524,0.441-0.772,0.675c-0.244,0.228-0.463,0.48-0.693,0.722
			c-0.07,0.003-0.141,0.005-0.211,0.008c-0.438-0.109-0.863-0.251-1.266-0.461c-1.635-0.85-1.816-3.132-0.342-4.251
			c0.395-0.299,0.835-0.493,1.311-0.606c0.197-0.047,0.265-0.134,0.25-0.334c-0.012-0.158,0.021-0.321,0.041-0.481
			c0.07-0.566,0.365-0.817,0.928-0.793c0.533,0.023,0.8,0.305,0.818,0.869c0.004,0.092,0.008,0.186,0,0.277
			c-0.018,0.237,0.074,0.348,0.325,0.388c0.455,0.073,0.9,0.199,1.316,0.415c0.383,0.199,0.664,0.493,0.863,0.872
			c-0.004,0.024-0.006,0.048-0.01,0.073c-0.43,0.266-0.775,0.614-1.043,1.042c-0.021-0.001-0.045-0.001-0.064-0.002
			c-0.861-0.713-1.823-1.014-2.922-0.689c-0.465,0.138-0.752,0.513-0.762,0.922c-0.009,0.419,0.225,0.714,0.721,0.9
			c0.488,0.182,0.992,0.295,1.502,0.39C34.957,11.324,34.961,11.345,34.965,11.366z"/>
		<path fill="#F3DD7E" d="M34.955,11.302c-0.51-0.095-1.016-0.208-1.502-0.39c-0.498-0.186-0.73-0.48-0.721-0.899
			c0.008-0.41,0.295-0.785,0.76-0.922c1.101-0.325,2.063-0.023,2.922,0.689C35.928,10.287,35.441,10.795,34.955,11.302z"/>
		<path fill="#EEB431" d="M31.769,14.493c-0.371,0.349-0.744,0.697-1.115,1.045c-0.021-0.001-0.043-0.002-0.063-0.005
			c-0.222-0.588-0.101-1.051,0.345-1.412c0.197-0.159,0.352-0.178,0.521,0.034c0.084,0.105,0.205,0.181,0.31,0.27
			C31.767,14.448,31.768,14.47,31.769,14.493z"/>
		<path fill="#E4AB24" d="M36.48,9.782c0.266-0.428,0.613-0.776,1.041-1.042c0.004,0.022,0.006,0.044,0.008,0.066
			c0,0.12,0,0.239,0,0.359c-0.029,0.262-0.168,0.464-0.35,0.644C36.863,10.125,36.777,10.122,36.48,9.782z"/>
		<path fill="#EEB431" d="M37.529,9.165c0-0.12,0-0.239,0-0.359C37.6,8.926,37.6,9.045,37.529,9.165z"/>
		<path fill="#F1D55A" d="M31.769,14.493c-0.001-0.022-0.002-0.045-0.003-0.068c0.46-0.469,0.92-0.938,1.378-1.408
			c0.066-0.068,0.195-0.106,0.143-0.246c0.07-0.003,0.142-0.005,0.211-0.008c0.5,0.141,1.021,0.215,1.492,0.44
			c0.358,0.17,0.657,0.393,0.665,0.846c0.01,0.489-0.221,0.86-0.727,1.015c-1.02,0.313-1.984,0.123-2.893-0.407
			C31.945,14.605,31.859,14.548,31.769,14.493z"/>
	</g>
</g>
</svg>
