<?xml version="1.0" encoding="utf-8"?>
<!-- Generator: Adobe Illustrator 16.0.0, SVG Export Plug-In . SVG Version: 6.00 Build 0)  -->
<!DOCTYPE svg PUBLIC "-//W3C//DTD SVG 1.1//EN" "http://www.w3.org/Graphics/SVG/1.1/DTD/svg11.dtd">
<svg version="1.1" id="Layer_1" xmlns="http://www.w3.org/2000/svg" xmlns:xlink="http://www.w3.org/1999/xlink" x="0px" y="0px"
	 width="593.116px" height="593.117px" viewBox="0 0 593.116 593.117" enable-background="new 0 0 593.116 593.117"
	 xml:space="preserve">
<g>
	<g>
		<path fill="#eb222b" d="M0.058,301.665c0-3.405,0-6.809,0-10.214c0.772-1.402,0.894-2.804,0-4.206c0-0.601,0-1.202,0-1.802
			c0.778-1.202,1.034-2.403,0-3.605c0-1.001,0-2.002,0-3.004c1.037-0.587,0.577-1.608,0.638-2.427
			c1.158-15.688,3.347-31.221,6.916-46.551c11.532-49.531,34.039-93.467,68.217-131.097c52.458-57.757,117.72-90.303,195.485-97.637
			c2.705-0.255,5.534,0.17,8.121-1.064c0.801,0,1.603,0,2.403,0c1.402,1.052,2.804,0.778,4.206,0c0.401,0,0.801,0,1.202,0
			c1.202,0.825,2.403,0.75,3.605,0c3.805,0,7.611,0,11.416,0c1.201,0.75,2.403,0.825,3.604,0c0.401,0,0.801,0,1.202,0
			c1.4,0.778,2.804,1.052,4.205,0c0.801,0,1.603,0,2.402,0c0.39,0.871,1.194,0.56,1.833,0.599
			c15.913,0.979,31.645,3.265,47.182,6.798c100.477,22.85,182.727,97.489,215.214,195.32c3.241,9.764,6.285,19.601,7.996,29.785
			c-2.424-0.994-4.848-1.989-7.271-2.983c-2.3-0.952-4.59-1.929-6.9-2.851c-7.949-3.168-15.57-7.131-23.738-9.767
			c-8.281-3.908-16.687-7.529-25.234-10.815c-8.412-3.597-16.825-7.195-25.237-10.792c-1.488-0.554-3.011-1.037-4.463-1.676
			c-6.276-2.762-12.412-5.854-18.957-7.979c-9.253-4.369-18.676-8.337-28.236-11.977c-4.674-2.041-9.316-4.154-14.026-6.106
			c-9.142-3.791-18.078-8.079-27.429-11.364c-0.597-0.352-1.163-0.777-1.796-1.044c-9.448-3.994-18.872-8.052-28.378-11.904
			c-3.762-1.524-7.23-3.841-11.373-4.379c-20.389,0.02-40.778,0.04-61.167,0.06c-19.378-0.037-38.756-0.047-58.134-0.144
			c-2.307-0.011-1.697,1.162-1.404,2.445c3.787,16.591,7.561,33.186,11.338,49.78c-4.526,1.655-7.54,4.499-7.607,9.663
			c-0.552,5.112,2.667,7.826,6.469,10.168c-6.871,0.63-10.354,3.973-10.673,10.244c-0.396,3.586,1.625,6.031,3.939,8.337
			c-4.816,2.658-9.577,5.408-14.096,8.554c-28.39,19.761-48.612,46.106-61.953,77.779c-11.859,28.154-16.964,57.428-11.934,87.862
			c1.015,6.144,0.259,10.899-3.258,16.047c-8.245,12.064-2.664,24.84,4.516,31.865c4.145,4.055,9.217,6.244,14.75,7.561
			c0.889,0.442,1.748,0.965,2.671,1.315c11.58,4.406,23.144,8.856,34.765,13.15c8.147,3.01,16.152,6.409,24.471,8.949
			c7.624,3.492,15.564,6.154,23.448,8.967c14.22,5.399,28.439,10.8,42.659,16.199c9.521,3.856,19.144,7.441,28.84,10.834
			c8.885,3.741,17.948,7.014,27.039,10.213c4.714,1.85,9.384,3.826,14.153,5.52c7.113,2.524,13.981,5.72,21.284,7.719
			c1.56,1.385,3.612,1.672,5.462,2.372c10.179,3.86,20.394,7.626,30.597,11.425c2.115,1.114,4.308,2.02,6.678,2.436
			c-0.228,0.188-0.43,0.421-0.685,0.554c-35.331,18.589-72.864,29.674-112.648,33.166c-2.898,0.255-5.918-0.156-8.701,1.099
			c-0.602,0-1.201,0-1.803,0c-0.818-1.113-1.963-0.409-2.96-0.529c-1.196,0.001-2.394,0.004-3.59,0.006
			c-1.446-0.024-2.929-0.345-4.266,0.523c-3.004,0-6.008,0-9.012,0c-1.335-0.868-2.818-0.548-4.264-0.525
			c-1.006,0.014-2.012,0.027-3.018,0.041c-1.382,0.131-2.883-0.762-4.134,0.484c-0.601,0-1.202,0-1.802,0
			c-0.481-0.964-1.399-0.576-2.127-0.628c-15.796-1.105-31.437-3.297-46.852-6.935c-61.565-14.528-113.562-45.315-155.422-92.703
			C31.269,443.929,6.971,386.774,1.117,321.797c-0.225-2.501,0.234-5.147-1.059-7.516c0-1.001,0-2.002,0-3.004
			c1.034-1.201,0.778-2.403,0-3.604c0-0.601,0-1.201,0-1.803C0.951,304.469,0.83,303.066,0.058,301.665z"/>
		<path fill="none" d="M279.435,0.058c-2.587,1.234-5.416,0.81-8.121,1.064c-77.765,7.334-143.026,39.88-195.485,97.637
			c-34.178,37.63-56.685,81.566-68.217,131.097c-3.569,15.33-5.758,30.862-6.916,46.551c-0.061,0.819,0.398,1.84-0.638,2.427
			C0.058,186.759,0.068,94.685,0,2.609C-0.002,0.443,0.445-0.002,2.61,0C94.885,0.067,187.16,0.058,279.435,0.058z"/>
		<path fill="none" d="M585.904,232.56c-1.711-10.184-4.755-20.021-7.996-29.785c-32.487-97.832-114.737-172.47-215.214-195.32
			c-15.537-3.533-31.269-5.82-47.182-6.798c-0.639-0.039-1.443,0.272-1.833-0.599c92.226,0,184.449,0.01,276.675-0.056
			c2.252-0.001,2.762,0.507,2.76,2.76c-0.065,92.224-0.058,184.449-0.058,276.673c-1.08-0.691-0.535-1.794-0.621-2.699
			c-0.646-6.788-0.905-13.618-2.29-20.323C589.386,248.345,588.013,240.387,585.904,232.56z"/>
		<path fill="none" d="M0.058,314.281c1.293,2.367,0.834,5.015,1.059,7.516c5.854,64.979,30.152,122.132,73.316,170.995
			c41.86,47.388,93.856,78.175,155.422,92.703c15.415,3.638,31.056,5.828,46.852,6.935c0.728,0.052,1.646-0.336,2.127,0.628
			c-92.075,0-184.149-0.009-276.224,0.06c-2.166,0.001-2.612-0.445-2.61-2.61C0.067,498.432,0.058,406.356,0.058,314.281z"/>
		<path fill="none" d="M313.681,593.058c2.784-1.255,5.804-0.844,8.702-1.099c39.784-3.492,77.317-14.577,112.648-33.166
			c0.255-0.133,0.457-0.366,0.685-0.554c7.731-3.813,15.13-8.188,22.21-13.104c2.913-1.899,5.893-3.71,8.729-5.719
			c13.599-9.638,26.556-20.049,38.168-32.057c0.671-0.594,1.38-1.148,2.006-1.784c40.078-40.722,66.653-88.835,79.171-144.646
			c2.783-12.411,4.814-24.933,5.757-37.623c0.747-2.964-0.043-6.148,1.303-9.025c0,92.023-0.009,184.049,0.058,276.072
			c0.002,2.253-0.508,2.763-2.76,2.761C498.13,593.049,405.905,593.058,313.681,593.058z"/>
		<path fill="#cb1621" d="M504.821,507.359c-11.612,12.008-24.569,22.419-38.168,32.057c-2.836,2.009-5.814,3.818-8.729,5.719
			c-0.017-1.024,0.295-1.961,0.72-2.884c7.981-17.352,15.947-34.71,23.931-52.061c6.06-13.173,12.155-26.328,18.202-39.508
			c8.505-18.541,16.947-37.108,25.477-55.64c7.649-16.624,15.404-33.2,23.063-49.82c11.298-24.521,22.551-49.063,33.823-73.594
			c2.331-5.074,4.67-10.145,7.006-15.217c1.385,6.705,1.646,13.535,2.289,20.323c0.086,0.905-0.459,2.008,0.622,2.699
			c0,0.2,0,0.401,0,0.601c-1.174,1.042-0.394,2.366-0.513,3.56c0.005,1.191,0.01,2.382,0.016,3.573
			c-0.093,1.458-0.276,2.925,0.497,4.282c0,2.804,0,5.606,0,8.411c-0.846,1.343-0.565,2.825-0.538,4.277
			c0.118,1.387-0.555,2.874,0.538,4.134c0,0.4,0,0.801,0,1.201c-0.825,1.201-1.036,2.403,0,3.604c0,0.4,0,0.801,0,1.201
			c-1.346,2.877-0.556,6.063-1.303,9.025c-1.505,0.655-2.16,2.018-2.799,3.388c-4.146,8.884-8.304,17.76-12.423,26.654
			c-6.22,13.435-12.427,26.873-18.609,40.324c-7.563,16.449-15.093,32.912-22.637,49.368c-5.252,11.456-10.261,23.032-15.831,34.332
			c-4.57,9.27-7.386,19.431-13.885,27.743C505.113,505.702,505.063,506.605,504.821,507.359z"/>
		<path fill="#cb1621" d="M286.043,0.058c-1.401,0.778-2.804,1.052-4.206,0C283.24,0.058,284.642,0.058,286.043,0.058z"/>
		<path fill="#cb1621" d="M0.058,287.245c0.894,1.402,0.772,2.804,0,4.206C0.058,290.049,0.058,288.647,0.058,287.245z"/>
		<path fill="#cb1621" d="M593.058,291.451c-0.773-1.357-0.59-2.825-0.497-4.282c0.17,0.002,0.336,0.028,0.497,0.076
			C593.058,288.647,593.058,290.049,593.058,291.451z"/>
		<path fill="#cb1621" d="M592.52,304.141c-0.027-1.452-0.308-2.936,0.538-4.277c0,1.4,0,2.804,0,4.206
			C592.88,304.099,592.7,304.123,592.52,304.141z"/>
		<path fill="#cb1621" d="M0.058,301.665c0.772,1.401,0.894,2.804,0,4.205C0.058,304.469,0.058,303.066,0.058,301.665z"/>
		<path fill="#cb1621" d="M311.277,0.058c-1.401,1.052-2.805,0.778-4.205,0C308.474,0.058,309.876,0.058,311.277,0.058z"/>
		<path fill="#cb1621" d="M592.52,304.141c0.182-0.018,0.36-0.042,0.538-0.071c0,1.4,0,2.804,0,4.205
			C591.965,307.015,592.638,305.526,592.52,304.141z"/>
		<path fill="#cb1621" d="M280.636,593.058c1.251-1.247,2.752-0.354,4.135-0.484c0.02,0.163,0.043,0.324,0.071,0.484
			C283.44,593.058,282.038,593.058,280.636,593.058z"/>
		<path fill="#cb1621" d="M287.788,592.531c1.446-0.021,2.928-0.344,4.264,0.525c-1.402,0-2.804,0-4.206,0
			C287.83,592.882,287.811,592.706,287.788,592.531z"/>
		<path fill="#cb1621" d="M301.063,593.058c1.337-0.868,2.818-0.549,4.266-0.523c-0.023,0.174-0.043,0.35-0.061,0.523
			C303.868,593.058,302.466,593.058,301.063,593.058z"/>
		<path fill="#cb1621" d="M290.85,0.058c-1.202,0.75-2.403,0.825-3.605,0C288.447,0.058,289.648,0.058,290.85,0.058z"/>
		<path fill="#cb1621" d="M593.058,287.245c-0.161-0.048-0.327-0.073-0.497-0.076c-0.006-1.191-0.011-2.382-0.016-3.574
			c0.173-0.01,0.344,0.005,0.513,0.045C593.058,284.842,593.058,286.043,593.058,287.245z"/>
		<path fill="#cb1621" d="M593.058,283.641c-0.169-0.04-0.34-0.055-0.513-0.045c0.119-1.194-0.661-2.518,0.513-3.56
			C593.058,281.237,593.058,282.439,593.058,283.641z"/>
		<path fill="#cb1621" d="M0.058,281.838c1.034,1.202,0.778,2.403,0,3.605C0.058,284.241,0.058,283.04,0.058,281.838z"/>
		<path fill="#cb1621" d="M0.058,307.673c0.778,1.201,1.034,2.403,0,3.604C0.058,310.076,0.058,308.874,0.058,307.673z"/>
		<path fill="#cb1621" d="M593.058,313.08c-1.035-1.201-0.825-2.403,0-3.604C593.058,310.677,593.058,311.879,593.058,313.08z"/>
		<path fill="#cb1621" d="M305.87,0.058c-1.201,0.825-2.403,0.75-3.604,0C303.467,0.058,304.669,0.058,305.87,0.058z"/>
		<path fill="#cb1621" d="M305.27,593.058c0.018-0.175,0.036-0.351,0.061-0.523c1.196-0.002,2.394-0.005,3.59-0.006
			c-0.027,0.175-0.042,0.353-0.045,0.53C307.673,593.058,306.472,593.058,305.27,593.058z"/>
		<path fill="#cb1621" d="M287.788,592.531c0.023,0.175,0.042,0.351,0.058,0.525c-1.001,0-2.002,0-3.004,0
			c-0.028-0.16-0.051-0.321-0.071-0.484C285.776,592.561,286.782,592.545,287.788,592.531z"/>
		<path fill="#cb1621" d="M308.874,593.058c0.003-0.178,0.018-0.354,0.045-0.529c0.997,0.12,2.142-0.584,2.96,0.529
			C310.877,593.058,309.876,593.058,308.874,593.058z"/>
		<path fill="#FFD056" d="M173.649,459.142c-5.533-1.315-10.606-3.506-14.75-7.561c-7.18-7.025-12.761-19.801-4.516-31.865
			c3.518-5.146,4.273-9.903,3.258-16.047c-5.03-30.436,0.075-59.708,11.934-87.862c13.34-31.673,33.563-58.019,61.953-77.779
			c4.519-3.146,9.28-5.896,14.097-8.554c2.598,1.454,5.375,1.91,8.352,1.904c16.089-0.032,32.178,0.042,48.268,0.079
			c0.012,16.179,0.024,32.358,0.037,48.537c-0.198,0.057-0.396,0.114-0.595,0.171c-3.73-0.3-7.377,0.369-11.008,1.042
			c-42.167,7.804-65.331,54.288-44.762,92.774c11.86,22.188,31.128,33.374,56.355,34.093c-0.033,16.996-0.067,33.992-0.102,50.987
			c-1.394,0.07-2.786,0.201-4.179,0.201c-40.792,0.019-81.584,0.021-122.376,0.027C174.96,459.24,174.305,459.191,173.649,459.142z"
			/>
		<path fill="#cb1621" d="M547.994,216.958c8.168,2.636,15.789,6.599,23.738,9.767c2.312,0.921,4.602,1.899,6.901,2.85
			c-0.659,3.932-2.835,7.24-4.453,10.774c-7.663,16.737-15.34,33.468-23.029,50.192c-6.146,13.362-12.333,26.704-18.472,40.069
			c-8.601,18.728-17.156,37.477-25.762,56.202c-6.184,13.454-12.425,26.882-18.616,40.332
			c-8.951,19.447-17.889,38.902-26.813,58.361c-5.131,11.186-10.192,22.4-15.352,33.571c-5.66,12.261-11.396,24.486-17.1,36.727
			c-10.203-3.799-20.418-7.563-30.598-11.425c-1.849-0.7-3.901-0.987-5.462-2.372c0.913-1.665,1.928-3.282,2.722-5.001
			c4.066-8.807,8.061-17.647,12.112-26.461c6.145-13.356,12.419-26.655,18.407-40.082c1.656-3.714,4.15-7.131,4.618-11.342
			c0.765-0.219,1.522-0.471,2.297-0.649c15.779-3.661,25.297-21.202,19.413-34.845c1.222-0.474,1.843-1.529,2.363-2.604
			c1.308-2.7,2.546-5.435,3.798-8.16c7.722-16.812,15.431-33.628,23.16-50.437c6.1-13.265,12.235-26.513,18.334-39.777
			c8.813-19.171,17.603-38.354,26.411-57.524c6.013-13.084,12.133-26.122,17.998-39.272
			C545.895,222.979,548.007,220.348,547.994,216.958z"/>
		<path fill="#cb1621" d="M429.038,555.805c5.703-12.239,11.438-24.466,17.1-36.727c5.158-11.171,10.221-22.387,15.352-33.571
			c8.926-19.459,17.862-38.914,26.813-58.361c6.191-13.45,12.435-26.878,18.616-40.332c8.604-18.727,17.161-37.476,25.762-56.202
			c6.139-13.365,12.326-26.707,18.472-40.069c7.689-16.724,15.367-33.455,23.029-50.192c1.618-3.534,3.795-6.842,4.453-10.774
			c2.424,0.995,4.847,1.99,7.271,2.984c2.107,7.828,3.48,15.786,4.241,23.853c-2.335,5.072-4.674,10.143-7.005,15.217
			c-11.273,24.532-22.526,49.074-33.824,73.595c-7.658,16.619-15.413,33.195-23.063,49.819c-8.527,18.53-16.972,37.1-25.477,55.641
			c-6.047,13.179-12.144,26.335-18.202,39.507c-7.981,17.351-15.948,34.709-23.93,52.061c-0.425,0.923-0.736,1.858-0.721,2.884
			c-7.079,4.916-14.479,9.293-22.21,13.104C433.346,557.823,431.153,556.919,429.038,555.805z"/>
		<path fill="#cb1621" d="M547.994,216.958c0.013,3.39-2.1,6.021-3.381,8.895c-5.865,13.15-11.985,26.188-17.998,39.272
			c-8.81,19.172-17.599,38.354-26.411,57.524c-6.098,13.266-12.234,26.514-18.334,39.777c-7.729,16.809-15.438,33.625-23.16,50.437
			c-1.252,2.727-2.49,5.46-3.798,8.16c-0.521,1.074-1.143,2.131-2.363,2.604c-1.807-3.087-3.238-6.414-5.521-9.193
			c-1.225-1.488-1.299-2.956-0.909-4.722c1.072-4.872,1.688-9.815,2.184-14.78c0.925-9.263,0.63-18.52,0.063-27.779
			c1.191-0.441,1.424-1.563,1.882-2.562c4.957-10.815,9.932-21.626,14.916-32.431c6.242-13.528,12.514-27.042,18.744-40.576
			c10.161-22.07,20.359-44.123,30.41-66.243c2.891-6.363,6.294-12.509,8.444-19.199C531.309,209.43,539.713,213.051,547.994,216.958
			z"/>
		<path fill="#cb1621" d="M522.76,206.143c-2.15,6.69-5.555,12.836-8.444,19.199c-10.051,22.121-20.249,44.173-30.41,66.243
			c-6.23,13.534-12.502,27.047-18.744,40.576c-4.984,10.805-9.959,21.614-14.916,32.431c-0.458,0.998-0.689,2.119-1.882,2.562
			c-1.692-15.014-4.998-29.652-10.157-43.862c0.801-0.332,1.183-1.002,1.527-1.755c6.495-14.171,13.004-28.336,19.515-42.5
			c10.183-22.154,20.382-44.302,30.548-66.463c2.624-5.718,5.153-11.479,7.728-17.221
			C505.936,198.948,514.348,202.546,522.76,206.143z"/>
		<path fill="#cb1621" d="M404.41,156.247c9.351,3.286,18.287,7.573,27.429,11.364c4.71,1.953,9.354,4.066,14.026,6.106
			c0.741,1.307,0.241,2.503-0.314,3.705c-3.561,7.699-7.14,15.389-10.669,23.102c-9.382,20.507-18.742,41.023-28.114,61.536
			c-0.637,1.394-1.393,2.678-3.082,2.995c-2.293-1.646-3.818-4.023-5.739-6.024c-9.286-9.678-19.765-17.875-30.978-25.174
			c3.577-1.264,4.39-4.584,5.76-7.564c8.716-18.947,17.574-37.828,26.188-56.821C400.881,165.135,403.561,161.058,404.41,156.247z"
			/>
		<path fill="#cb1621" d="M497.521,195.351c-2.573,5.742-5.104,11.502-7.728,17.221c-10.166,22.161-20.365,44.309-30.548,66.463
			c-6.511,14.164-13.02,28.33-19.515,42.5c-0.346,0.753-0.728,1.423-1.527,1.755c-4.078-10.294-8.729-20.319-14.125-29.992
			c1.418-0.809,1.903-2.291,2.527-3.633c3.712-7.981,7.388-15.979,11.063-23.976c8.939-19.447,17.939-38.867,26.774-58.361
			c3.259-7.191,6.993-14.174,9.654-21.633c6.546,2.125,12.682,5.219,18.958,7.979C494.512,194.314,496.033,194.797,497.521,195.351z
			"/>
		<path fill="#cb1621" d="M474.102,185.695c-2.66,7.458-6.396,14.442-9.654,21.633c-8.835,19.495-17.835,38.914-26.774,58.361
			c-3.677,7.997-7.353,15.995-11.063,23.976c-0.624,1.342-1.109,2.825-2.527,3.633c-6.148-9.883-12.889-19.34-20.396-28.243
			c1.69-0.316,2.446-1.601,3.084-2.995c9.371-20.512,18.731-41.029,28.113-61.536c3.529-7.713,7.108-15.403,10.669-23.102
			c0.557-1.202,1.057-2.398,0.314-3.705C455.427,177.358,464.85,181.326,474.102,185.695z"/>
		<path fill="#cb1621" d="M430.839,459.122c-0.468,4.211-2.962,7.628-4.618,11.342c-5.987,13.427-12.264,26.726-18.406,40.082
			c-4.054,8.813-8.047,17.654-12.113,26.461c-0.794,1.719-1.809,3.336-2.721,5.001c-7.303-1.999-14.172-5.193-21.284-7.719
			c-4.771-1.692-9.439-3.67-14.153-5.521c3.506-0.329,3.84-3.507,4.908-5.794c6.719-14.377,13.386-28.779,19.867-43.267
			c2.973-6.644,6.534-13.029,8.857-19.962c11.236-0.021,22.475-0.037,33.71-0.069c1.382-0.005,2.794,0.188,4.114-0.435
			C429.613,459.203,430.227,459.162,430.839,459.122z"/>
		<path fill="#F4A329" d="M301.696,138.979c20.389-0.02,40.777-0.04,61.167-0.061c-0.419,4.274-1.71,8.368-2.627,12.536
			c-2.904,13.216-5.912,26.409-8.88,39.611c-10.896-0.003-21.79-0.001-32.686-0.011c-21.488-0.02-42.978-0.046-64.466-0.07
			c1.319-0.648,2.738-0.459,4.125-0.46c13.279-0.011,26.559-0.001,39.837-0.01c3.968-0.003,4.088-0.116,4.09-3.991
			c0.01-14.577,0.004-29.154,0.005-43.731C302.263,141.492,302.299,140.188,301.696,138.979z"/>
		<path fill="#F9B52C" d="M301.696,138.979c0.603,1.209,0.565,2.513,0.565,3.813c-0.001,14.577,0.005,29.154-0.005,43.731
			c-0.002,3.875-0.122,3.988-4.09,3.991c-13.278,0.009-26.558-0.001-39.837,0.01c-1.387,0.001-2.806-0.188-4.126,0.46
			c-0.236,0.025-0.472,0.05-0.708,0.076c-3.777-16.594-7.552-33.188-11.338-49.78c-0.293-1.283-0.902-2.457,1.404-2.445
			C262.94,138.933,282.318,138.943,301.696,138.979z"/>
		<path fill="#cb1621" d="M351.356,191.065c2.968-13.201,5.976-26.394,8.88-39.61c0.917-4.168,2.208-8.262,2.627-12.536
			c4.143,0.539,7.611,2.855,11.373,4.379c9.506,3.853,18.93,7.91,28.378,11.904c0.633,0.268,1.198,0.693,1.796,1.044
			c-0.852,4.811-3.529,8.888-5.495,13.224c-8.612,18.993-17.472,37.874-26.187,56.821c-1.371,2.98-2.184,6.3-5.761,7.564
			c-2.595-1.446-5.188-2.893-7.784-4.339c2.477-2.496,4.597-5.142,3.824-9.015c-0.416-5.941-3.826-9-10.742-9.634
			c4.135-2.135,7.063-5.054,6.609-10.17C358.792,195.596,355.785,192.775,351.356,191.065z"/>
		<path fill="#cb1621" d="M391.176,459.748c-2.322,6.932-5.886,13.317-8.857,19.961c-6.481,14.486-13.148,28.89-19.867,43.268
			c-1.068,2.286-1.402,5.464-4.908,5.794c-9.091-3.199-18.154-6.472-27.039-10.212c2.1-0.536,2.45-2.497,3.174-4.064
			c6.645-14.376,13.335-28.732,19.773-43.2c1.684-3.781,4.263-7.243,4.688-11.548C369.15,459.745,380.163,459.746,391.176,459.748z"
			/>
		<path fill="#cb1621" d="M301.663,507.724c-14.22-5.399-28.439-10.8-42.659-16.199c3.802-6.325,6.402-13.229,9.47-19.903
			c1.776-3.863,4.157-7.503,4.944-11.79c16.623-0.027,33.246-0.055,49.869-0.081c-0.028,1.241-0.611,2.295-1.114,3.385
			C315.33,477.994,308.498,492.859,301.663,507.724z"/>
		<path fill="#cb1621" d="M301.663,507.724c6.835-14.863,13.667-29.729,20.51-44.59c0.503-1.09,1.086-2.144,1.114-3.386
			c11.617-0.001,23.234-0.002,34.852-0.002c-0.426,4.304-3.005,7.766-4.688,11.547c-6.438,14.468-13.13,28.824-19.773,43.2
			c-0.724,1.567-1.074,3.528-3.174,4.063C320.807,515.165,311.184,511.58,301.663,507.724z"/>
		<path fill="#E05760" d="M363.009,220.501c0.771,3.874-1.349,6.52-3.823,9.016c-2.812,1.486-5.799,1.883-8.971,1.874
			c-15.99-0.049-31.979,0.031-47.971,0.065c-16.09-0.037-32.179-0.11-48.268-0.079c-2.977,0.006-5.753-0.451-8.352-1.904
			c-2.315-2.306-4.335-4.75-3.939-8.336c39.183,0.003,78.365,0.008,117.547,0.006C360.522,221.143,361.849,221.295,363.009,220.501z
			"/>
		<path fill="#EB6972" d="M363.009,220.501c-1.16,0.793-2.485,0.641-3.775,0.641c-39.183,0.002-78.364-0.003-117.547-0.006
			c0.318-6.271,3.802-9.614,10.672-10.244c33.303-0.008,66.605-0.016,99.909-0.024C359.183,211.501,362.593,214.56,363.009,220.501z
			"/>
		<path fill="#E05760" d="M352.267,210.868c-33.304,0.008-66.605,0.017-99.909,0.024c-3.802-2.342-7.021-5.056-6.469-10.169
			c37.662-0.008,75.325-0.017,112.987-0.026C359.328,205.813,356.4,208.733,352.267,210.868z"/>
		<path fill="#EB6972" d="M358.876,200.697c-37.662,0.009-75.325,0.018-112.987,0.026c0.068-5.163,3.082-8.007,7.607-9.662
			c0.236-0.025,0.472-0.05,0.708-0.076c21.49,0.023,42.979,0.049,64.467,0.069c10.896,0.01,21.79,0.008,32.686,0.011
			C355.785,192.775,358.792,195.596,358.876,200.697z"/>
		<path fill="#cb1621" d="M173.649,459.142c0.655,0.051,1.311,0.1,1.965,0.147c1.328,0.642,2.752,0.406,4.139,0.41
			c22.012,0.053,44.024,0.089,66.036,0.129c-3.411,7.576-6.821,15.152-10.232,22.729c-8.318-2.54-16.324-5.939-24.471-8.949
			c-11.621-4.295-23.185-8.744-34.765-13.15C175.397,460.105,174.539,459.584,173.649,459.142z"/>
		<path fill="#cb1621" d="M235.556,482.558c3.411-7.576,6.822-15.152,10.232-22.729c9.21,0.001,18.42,0.002,27.63,0.004
			c-0.788,4.286-3.168,7.926-4.944,11.789c-3.068,6.674-5.668,13.578-9.47,19.903C251.12,488.712,243.18,486.05,235.556,482.558z"/>
		<path fill="#cb1621" d="M504.821,507.359c0.241-0.754,0.292-1.657,0.75-2.242c6.499-8.313,9.313-18.475,13.885-27.743
			c5.57-11.3,10.579-22.876,15.831-34.332c7.544-16.456,15.074-32.919,22.637-49.368c6.184-13.451,12.391-26.891,18.609-40.324
			c4.119-8.896,8.278-17.771,12.423-26.654c0.639-1.37,1.294-2.731,2.799-3.388c-0.941,12.69-2.974,25.212-5.757,37.623
			c-12.518,55.811-39.093,103.923-79.171,144.646C506.201,506.211,505.492,506.767,504.821,507.359z"/>
		<path fill="#F9B52C" d="M302.244,231.456c15.99-0.034,31.979-0.114,47.971-0.065c3.172,0.009,6.159-0.388,8.971-1.874
			c2.595,1.446,5.188,2.893,7.783,4.339c11.213,7.3,21.69,15.497,30.978,25.174c1.921,2.001,3.446,4.379,5.739,6.024
			c7.507,8.903,14.246,18.36,20.396,28.243c5.397,9.673,10.047,19.698,14.125,29.992c5.159,14.21,8.465,28.85,10.157,43.862
			c0.567,9.261,0.861,18.518-0.063,27.779c-0.495,4.966-1.11,9.908-2.184,14.78c-0.389,1.766-0.314,3.232,0.909,4.722
			c2.282,2.779,3.716,6.106,5.521,9.193c5.884,13.642-3.634,31.183-19.413,34.845c-0.773,0.18-1.531,0.432-2.297,0.649
			c-0.613,0.04-1.226,0.081-1.839,0.121c-19.688-0.024-39.379-0.045-59.068-0.073c-22.587-0.033-45.174-0.073-67.761-0.109
			c0.033-16.995,0.067-33.991,0.102-50.987l-0.039-0.146c11.691,0.186,22.502-2.895,32.59-8.729
			c37.164-21.499,42.402-74.392,10.197-102.779c-12.229-10.779-26.576-15.937-42.738-16.424
			C302.27,263.813,302.256,247.635,302.244,231.456z"/>
		<path fill="#F1DED4" d="M302.271,408.072c-25.228-0.719-44.496-11.904-56.355-34.093c-20.569-38.486,2.594-84.971,44.762-92.774
			c3.631-0.672,7.278-1.341,11.006-1.042c0.511,1.011,0.57,2.1,0.569,3.204c-0.005,4.682-0.002,9.364-0.003,14.045
			c-5.394,0.361-5.394,0.361-5.394,5.763c0,0.601-0.086,1.214,0.015,1.795c0.374,2.16-0.667,2.882-2.674,3.323
			c-9.339,2.056-14.344,7.408-15.172,16.828c-1.111,12.651,3.515,21.675,17.331,23.146c1.968,0.21,4.013,0.077,5.901,0.882
			c-0.003,6.587-0.005,13.174-0.007,19.761c-3.899,0.11-8.621,0.096-9.645-4.119c-1.198-4.934-4.129-4.278-7.398-4.249
			c-1.597,0.014-3.201,0.102-4.789-0.021c-1.932-0.148-2.292,0.707-2.237,2.474c0.273,8.779,5.565,15.313,14.756,17.026
			c3.363,0.627,4.133,1.841,3.989,4.972c-0.249,5.388-0.066,5.396,5.315,5.698c-0.004,5.745-0.007,11.489-0.011,17.234
			L302.271,408.072z"/>
		<path fill="#E6CABF" d="M302.232,407.927c0.004-5.745,0.007-11.489,0.011-17.234c6.189-0.344,6.273-0.345,6.224-6.807
			c-0.017-2.257,0.53-3.326,2.974-3.808c8.266-1.632,13.063-6.821,14.575-15.101c0.598-3.271,0.598-6.569,0.496-9.864
			c-0.291-9.586-4.881-14.976-14.316-16.782c-3.522-0.675-7.081-1.162-10.623-1.735c0.766-1.041,0.682-2.253,0.683-3.442
			c0.004-4.673-0.001-9.348-0.002-14.021c3.576-0.272,7.422,0.075,8.543,3.85c1.117,3.759,3.163,4.134,6.284,3.853
			c1.98-0.178,3.989-0.067,5.984-0.033c1.359,0.022,1.948-0.409,1.845-1.932c-0.531-7.687-5.502-14.166-13.034-16.156
			c-2.646-0.698-3.497-1.738-3.426-4.434c0.167-6.4,0.029-6.403-6.196-6.866c0.001-4.681-0.002-9.363,0.003-14.045
			c0.001-1.104-0.06-2.193-0.568-3.204c0.198-0.057,0.396-0.114,0.596-0.171c16.162,0.488,30.51,5.646,42.738,16.424
			c32.205,28.389,26.967,81.28-10.197,102.779C324.734,405.032,313.925,408.111,302.232,407.927z"/>
		<path fill="#cb1621" d="M302.171,459.061c22.587,0.036,45.174,0.076,67.761,0.109c19.689,0.028,39.379,0.049,59.068,0.073
			c-1.32,0.621-2.732,0.43-4.114,0.435c-11.235,0.032-22.474,0.048-33.71,0.069c-11.013-0.001-22.024-0.002-33.037-0.002
			c-11.617,0.001-23.233,0.002-34.852,0.003c-16.623,0.027-33.246,0.055-49.869,0.082c-9.21-0.001-18.42-0.002-27.63-0.003
			c-22.012-0.039-44.024-0.075-66.036-0.128c-1.387-0.004-2.811,0.23-4.139-0.41c40.793-0.006,81.586-0.01,122.378-0.027
			C299.385,459.262,300.777,459.131,302.171,459.061z"/>
		<path fill="#E05760" d="M302.252,297.413c6.227,0.463,6.363,0.466,6.196,6.866c-0.071,2.694,0.78,3.734,3.426,4.434
			c7.532,1.99,12.503,8.471,13.034,16.156c0.104,1.521-0.484,1.954-1.845,1.932c-1.995-0.034-4.005-0.145-5.984,0.033
			c-3.121,0.281-5.167-0.094-6.284-3.853c-1.121-3.773-4.967-4.122-8.543-3.85c-6.708-0.36-9.702,1.874-10.146,7.574
			c-0.489,6.276,2.358,9.251,9.465,9.889c3.542,0.573,7.101,1.062,10.623,1.735c9.437,1.808,14.025,7.196,14.316,16.782
			c0.102,3.295,0.102,6.594-0.496,9.864c-1.512,8.278-6.311,13.469-14.575,15.101c-2.442,0.48-2.989,1.551-2.974,3.808
			c0.051,6.462-0.033,6.463-6.224,6.807c-5.383-0.303-5.564-0.312-5.315-5.698c0.146-3.131-0.625-4.345-3.989-4.972
			c-9.19-1.713-14.483-8.247-14.756-17.026c-0.055-1.767,0.306-2.622,2.237-2.474c1.588,0.121,3.192,0.033,4.789,0.021
			c3.27-0.029,6.201-0.685,7.398,4.249c1.023,4.215,5.745,4.229,9.645,4.119c7.172,0.137,10.559-2.692,11.274-9.42
			c0.595-5.59-2.196-8.788-8.901-10.147c-0.771-0.155-1.577-0.134-2.366-0.192c-1.889-0.805-3.934-0.671-5.901-0.882
			c-13.815-1.472-18.442-10.494-17.331-23.146c0.828-9.42,5.833-14.772,15.172-16.828c2.008-0.441,3.048-1.163,2.674-3.323
			c-0.101-0.581-0.015-1.194-0.015-1.795C296.858,297.774,296.858,297.774,302.252,297.413z"/>
		<path fill="#E6CABF" d="M302.259,349.149c0.789,0.06,1.597,0.036,2.366,0.192c6.705,1.359,9.496,4.559,8.901,10.147
			c-0.716,6.728-4.104,9.557-11.274,9.42C302.254,362.323,302.256,355.736,302.259,349.149z"/>
		<path fill="#F1DED4" d="M301.571,336.596c-7.106-0.638-9.954-3.611-9.465-9.889c0.443-5.7,3.438-7.936,10.146-7.574
			c0.001,4.673,0.006,9.348,0.002,14.021C302.253,334.343,302.337,335.555,301.571,336.596z"/>
	</g>
</g>
</svg>
